<svg width="68" height="12" viewBox="0 0 68 12" fill="none" xmlns="http://www.w3.org/2000/svg">
<path d="M19.9312 0C16.707 0 14.0691 2.51801 14.0691 5.59557C14.0691 8.67313 16.707 11.1911 19.9312 11.1911C23.1553 11.1911 25.7933 8.67313 25.7933 5.59557C25.7933 2.51801 23.1553 0 19.9312 0Z" fill="#828282"/>
<path d="M4.68966 1.11918C2.11035 1.11918 0 3.13358 0 5.59563C0 8.05768 2.11035 10.0721 4.68966 10.0721C7.26897 10.0721 9.37932 8.05768 9.37932 5.59563C9.37932 3.13358 7.26897 1.11918 4.68966 1.11918Z" fill="#F2F2F2"/>
<path d="M35.1724 1.11918C32.5931 1.11918 30.4828 3.13358 30.4828 5.59563C30.4828 8.05768 32.5931 10.0721 35.1724 10.0721C37.7517 10.0721 39.8621 8.05768 39.8621 5.59563C39.8621 3.13358 37.7517 1.11918 35.1724 1.11918Z" fill="#F2F2F2"/>
<path d="M49.2415 1.11918C46.6622 1.11918 44.5519 3.13358 44.5519 5.59563C44.5519 8.05768 46.6622 10.0721 49.2415 10.0721C51.8208 10.0721 53.9312 8.05768 53.9312 5.59563C53.9312 3.13358 51.8208 1.11918 49.2415 1.11918Z" fill="#F2F2F2"/>
<path d="M63.3104 1.11918C60.7311 1.11918 58.6207 3.13358 58.6207 5.59563C58.6207 8.05768 60.7311 10.0721 63.3104 10.0721C65.8897 10.0721 68 8.05768 68 5.59563C68 3.13358 65.8897 1.11918 63.3104 1.11918Z" fill="#F2F2F2"/>
</svg>
