<svg width="46" height="46" viewBox="0 0 46 46" fill="none" xmlns="http://www.w3.org/2000/svg">
<path d="M22.2674 45.9511C20.7829 45.9511 19.2872 45.7824 17.7802 45.445C16.2732 45.1076 14.7325 44.624 13.158 43.9942C13.6978 38.5511 15.2723 33.4678 17.8814 28.7444C20.4905 24.021 23.8419 19.86 27.9355 16.2612C22.9871 18.7803 18.7024 22.1092 15.0811 26.2478C11.4598 30.3864 8.92945 35.1098 7.48994 40.418C7.31 40.283 7.14131 40.1368 6.98386 39.9794L6.47779 39.4733C4.36351 37.359 2.75531 34.9973 1.65319 32.3882C0.551062 29.7791 0 27.0575 0 24.2235C0 21.1645 0.607293 18.2405 1.82188 15.4515C3.03646 12.6624 4.72339 10.1883 6.88265 8.029C10.5264 4.38525 15.2498 2.01231 21.0528 0.910181C26.8558 -0.191943 34.998 -0.293158 45.4795 0.606535C46.2892 11.3579 46.1542 19.5563 45.0746 25.2019C43.995 30.8475 41.6558 35.4696 38.057 39.0684C35.8528 41.2727 33.3898 42.9708 30.6683 44.1629C27.9467 45.355 25.1464 45.9511 22.2674 45.9511Z" fill="white"/>
</svg>
