<svg width="24" height="24" viewBox="0 0 24 24" fill="none" xmlns="http://www.w3.org/2000/svg">
<mask id="mask0_48_456" style="mask-type:alpha" maskUnits="userSpaceOnUse" x="-2" y="-3" width="30" height="30">
<rect x="-1.19995" y="-2.40065" width="28.7998" height="28.7998" fill="#D9D9D9"/>
</mask>
<g mask="url(#mask0_48_456)">
<path d="M7.19995 23.9998C6.53995 23.9998 5.97496 23.7648 5.50496 23.2948C5.03496 22.8248 4.79997 22.2598 4.79997 21.5999C4.79997 20.9399 5.03496 20.3749 5.50496 19.9049C5.97496 19.4349 6.53995 19.1999 7.19995 19.1999C7.85994 19.1999 8.42494 19.4349 8.89494 19.9049C9.36493 20.3749 9.59993 20.9399 9.59993 21.5999C9.59993 22.2598 9.36493 22.8248 8.89494 23.2948C8.42494 23.7648 7.85994 23.9998 7.19995 23.9998ZM19.1999 23.9998C18.5399 23.9998 17.9749 23.7648 17.5049 23.2948C17.0349 22.8248 16.7999 22.2598 16.7999 21.5999C16.7999 20.9399 17.0349 20.3749 17.5049 19.9049C17.9749 19.4349 18.5399 19.1999 19.1999 19.1999C19.8599 19.1999 20.4249 19.4349 20.8949 19.9049C21.3649 20.3749 21.5998 20.9399 21.5998 21.5999C21.5998 22.2598 21.3649 22.8248 20.8949 23.2948C20.4249 23.7648 19.8599 23.9998 19.1999 23.9998ZM5.03996 2.39998H22.7398C23.1998 2.39998 23.5498 2.60498 23.7898 3.01498C24.0298 3.42498 24.0398 3.83997 23.8198 4.25997L19.5599 11.9399C19.3399 12.3399 19.0449 12.6499 18.6749 12.8699C18.3049 13.0899 17.8999 13.1999 17.4599 13.1999H8.51994L7.19995 15.5999H20.3999C20.7399 15.5999 21.0249 15.7149 21.2548 15.9449C21.4848 16.1749 21.5998 16.4599 21.5998 16.7999C21.5998 17.1399 21.4848 17.4249 21.2548 17.6549C21.0249 17.8849 20.7399 17.9999 20.3999 17.9999H7.19995C6.29996 17.9999 5.61996 17.6049 5.15996 16.8149C4.69997 16.0249 4.67997 15.2399 5.09996 14.4599L6.71995 11.5199L2.39998 2.39998H1.19999C0.859994 2.39998 0.574996 2.28498 0.344998 2.05499C0.114999 1.82499 0 1.53999 0 1.19999C0 0.859994 0.114999 0.574996 0.344998 0.344998C0.574996 0.114999 0.859994 0 1.19999 0H3.14998C3.36998 0 3.57998 0.0599996 3.77997 0.179999C3.97997 0.299998 4.12997 0.469997 4.22997 0.689995L5.03996 2.39998Z" fill="#52B788"/>
</g>
</svg>
