<svg width="18" height="20" viewBox="0 0 18 20" fill="none" xmlns="http://www.w3.org/2000/svg">
<mask id="mask0_92_521" style="mask-type:alpha" maskUnits="userSpaceOnUse" x="-6" y="-5" width="30" height="30">
<rect x="-5.33029" y="-4.28228" width="28.4282" height="28.4282" fill="#D9D9D9"/>
</mask>
<g mask="url(#mask0_92_521)">
<path d="M3.32575 19.9999C2.73501 19.9999 2.23046 19.7907 1.81209 19.3723C1.3937 18.954 1.18451 18.4494 1.18451 17.8587V2.82455H0V1.04782H5.33026V0H12.4373V1.04782H17.7676V2.82455H16.5831V17.8587C16.5831 18.457 16.3758 18.9635 15.9612 19.378C15.5466 19.7926 15.0402 19.9999 14.4418 19.9999H3.32575ZM14.8063 2.82455H2.96124V17.8587C2.96124 17.965 2.99542 18.0523 3.06376 18.1207C3.13211 18.189 3.21944 18.2232 3.32575 18.2232H14.4418C14.533 18.2232 14.6165 18.1852 14.6924 18.1093C14.7684 18.0333 14.8063 17.9498 14.8063 17.8587V2.82455ZM5.80866 15.8542H7.58539V5.19357H5.80866V15.8542ZM10.1822 15.8542H11.9589V5.19357H10.1822V15.8542Z" fill="#52B788"/>
</g>
</svg>
