<svg width="128" height="128" viewBox="0 0 128 128" fill="none" xmlns="http://www.w3.org/2000/svg">
<circle cx="64" cy="64" r="64" fill="#E9ECEF"/>
<mask id="mask0_25_282" style="mask-type:alpha" maskUnits="userSpaceOnUse" x="32" y="32" width="64" height="64">
<rect x="32" y="32" width="64" height="64" fill="#D9D9D9"/>
</mask>
<g mask="url(#mask0_25_282)">
<path d="M64.0001 64.0001C61.0667 64.0001 58.5556 62.9556 56.4667 60.8667C54.3779 58.7779 53.3334 56.2667 53.3334 53.3334C53.3334 50.4001 54.3779 47.889 56.4667 45.8001C58.5556 43.7112 61.0667 42.6667 64.0001 42.6667C66.9334 42.6667 69.4445 43.7112 71.5334 45.8001C73.6223 47.889 74.6667 50.4001 74.6667 53.3334C74.6667 56.2667 73.6223 58.7779 71.5334 60.8667C69.4445 62.9556 66.9334 64.0001 64.0001 64.0001ZM42.6667 85.3334V77.8667C42.6667 76.3556 43.0556 74.9667 43.8334 73.7001C44.6112 72.4334 45.6445 71.4667 46.9334 70.8001C49.689 69.4223 52.489 68.389 55.3334 67.7001C58.1779 67.0112 61.0667 66.6667 64.0001 66.6667C66.9334 66.6667 69.8223 67.0112 72.6667 67.7001C75.5112 68.389 78.3112 69.4223 81.0667 70.8001C82.3556 71.4667 83.389 72.4334 84.1667 73.7001C84.9445 74.9667 85.3334 76.3556 85.3334 77.8667V85.3334H42.6667Z" fill="#ADB5BD"/>
</g>
</svg>
