<svg width="19" height="17" viewBox="0 0 19 17" fill="none" xmlns="http://www.w3.org/2000/svg">
<mask id="mask0_0_847" style="mask-type:alpha" maskUnits="userSpaceOnUse" x="-3" y="-4" width="25" height="25">
<rect x="-2.50003" y="-3.5" width="24" height="24" fill="#D9D9D9"/>
</mask>
<g mask="url(#mask0_0_847)">
<path d="M1.8077 17C1.30257 17 0.875 16.825 0.525 16.475C0.175 16.125 0 15.6974 0 15.1923V1.8077C0 1.30257 0.175 0.875 0.525 0.525C0.875 0.175 1.30257 0 1.8077 0H17.1923C17.6974 0 18.125 0.175 18.475 0.525C18.825 0.875 19 1.30257 19 1.8077V15.1923C19 15.6974 18.825 16.125 18.475 16.475C18.125 16.825 17.6974 17 17.1923 17H1.8077ZM1.8077 15.5H17.1923C17.2692 15.5 17.3397 15.4679 17.4038 15.4038C17.4679 15.3397 17.5 15.2692 17.5 15.1923V1.8077C17.5 1.73077 17.4679 1.66024 17.4038 1.59613C17.3397 1.53203 17.2692 1.49998 17.1923 1.49998H1.8077C1.73077 1.49998 1.66024 1.53203 1.59613 1.59613C1.53202 1.66024 1.49998 1.73077 1.49998 1.8077V15.1923C1.49998 15.2692 1.53202 15.3397 1.59613 15.4038C1.66024 15.4679 1.73077 15.5 1.8077 15.5ZM4.6346 13.1153H14.3654C14.5782 13.1153 14.7564 13.0435 14.9 12.9C15.0435 12.7564 15.1153 12.5782 15.1153 12.3654C15.1153 12.1525 15.0435 11.9743 14.9 11.8308C14.7564 11.6872 14.5782 11.6154 14.3654 11.6154H4.6346C4.42178 11.6154 4.24358 11.6872 4.1 11.8308C3.95642 11.9743 3.88463 12.1525 3.88463 12.3654C3.88463 12.5782 3.95642 12.7564 4.1 12.9C4.24358 13.0435 4.42178 13.1153 4.6346 13.1153ZM4.6346 9.24995H6.82693C7.03974 9.24995 7.21794 9.17816 7.36153 9.03458C7.50511 8.89099 7.5769 8.71279 7.5769 8.49998V4.6346C7.5769 4.42178 7.50511 4.24358 7.36153 4.1C7.21794 3.95642 7.03974 3.88463 6.82693 3.88463H4.6346C4.42178 3.88463 4.24358 3.95642 4.1 4.1C3.95642 4.24358 3.88463 4.42178 3.88463 4.6346V8.49998C3.88463 8.71279 3.95642 8.89099 4.1 9.03458C4.24358 9.17816 4.42178 9.24995 4.6346 9.24995ZM10.5192 9.24995H14.3654C14.5782 9.24995 14.7564 9.17816 14.9 9.03458C15.0435 8.89099 15.1153 8.71279 15.1153 8.49998C15.1153 8.28716 15.0435 8.10896 14.9 7.96538C14.7564 7.82179 14.5782 7.75 14.3654 7.75H10.5192C10.3064 7.75 10.1282 7.82179 9.9846 7.96538C9.84102 8.10896 9.76923 8.28716 9.76923 8.49998C9.76923 8.71279 9.84102 8.89099 9.9846 9.03458C10.1282 9.17816 10.3064 9.24995 10.5192 9.24995ZM10.5192 5.38458H14.3654C14.5782 5.38458 14.7564 5.31278 14.9 5.1692C15.0435 5.02562 15.1153 4.84742 15.1153 4.6346C15.1153 4.42178 15.0435 4.24358 14.9 4.1C14.7564 3.95642 14.5782 3.88463 14.3654 3.88463H10.5192C10.3064 3.88463 10.1282 3.95642 9.9846 4.1C9.84102 4.24358 9.76923 4.42178 9.76923 4.6346C9.76923 4.84742 9.84102 5.02562 9.9846 5.1692C10.1282 5.31278 10.3064 5.38458 10.5192 5.38458Z" fill="#495057"/>
</g>
</svg>
