<svg width="24" height="20" viewBox="0 0 24 20" fill="none" xmlns="http://www.w3.org/2000/svg">
<mask id="mask0_222_1409" style="mask-type:alpha" maskUnits="userSpaceOnUse" x="-2" y="-5" width="29" height="30">
<rect x="-1.69687" y="-4.11778" width="28.2351" height="28.2351" fill="#D9D9D9"/>
</mask>
<g mask="url(#mask0_222_1409)">
<path d="M13.5971 19.9998C12.2668 19.9998 11.0089 19.7528 9.82342 19.2588C8.63792 18.7649 7.58363 18.0812 6.66056 17.2079L7.92976 15.9501C8.68993 16.6605 9.54701 17.2189 10.501 17.6254C11.455 18.0319 12.487 18.2351 13.5971 18.2351C15.8792 18.2351 17.8222 17.4331 19.4263 15.829C21.0303 14.225 21.8324 12.2819 21.8324 9.99989C21.8324 7.7254 21.0284 5.78424 19.4206 4.17641C17.8128 2.56858 15.8716 1.76466 13.5971 1.76466C11.3226 1.76466 9.38147 2.56858 7.77364 4.17641C6.16581 5.78424 5.3619 7.7254 5.3619 9.99989V10.9185L7.70126 8.57914L8.95913 9.8076L4.47958 14.2871L0 9.8076L1.2579 8.57914L3.59724 10.9479V9.99989C3.59724 8.61169 3.85968 7.3114 4.38458 6.09904C4.90946 4.88668 5.62287 3.82952 6.5248 2.92757C7.42675 2.02563 8.48384 1.31223 9.69607 0.787347C10.9083 0.262449 12.2084 0 13.5965 0C14.9845 0 16.2849 0.262449 17.4975 0.787347C18.7102 1.31223 19.7675 2.02563 20.6694 2.92757C21.5714 3.82952 22.2848 4.88657 22.8097 6.09872C23.3346 7.31086 23.597 8.61091 23.597 9.99886C23.597 12.7748 22.6248 15.1356 20.6804 17.0812C18.7359 19.0269 16.3749 19.9998 13.5971 19.9998ZM11.2442 14.57C10.9301 14.57 10.6668 14.4637 10.4543 14.2513C10.2419 14.0388 10.1356 13.7755 10.1356 13.4614V9.93201C10.1356 9.61791 10.2484 9.35462 10.4739 9.14213C10.6993 8.92966 10.9788 8.82343 11.3121 8.82343V7.57909C11.3121 6.9507 11.5358 6.41276 11.9833 5.96528C12.4308 5.51779 12.9687 5.29405 13.5971 5.29405C14.2255 5.29405 14.7634 5.51779 15.2109 5.96528C15.6584 6.41276 15.8822 6.9507 15.8822 7.57909V8.82343C16.2155 8.82343 16.4949 8.92966 16.7204 9.14213C16.9459 9.35462 17.0586 9.61791 17.0586 9.93201V13.4614C17.0586 13.7755 16.9524 14.0388 16.7399 14.2513C16.5274 14.4637 16.2641 14.57 15.95 14.57H11.2442ZM12.3528 8.82343H14.8415V7.58347C14.8415 7.23214 14.7212 6.93619 14.4806 6.69562C14.24 6.45504 13.9455 6.33474 13.5971 6.33474C13.2487 6.33474 12.9542 6.45504 12.7136 6.69562C12.4731 6.93619 12.3528 7.23214 12.3528 7.58347V8.82343Z" fill="#52B788"/>
</g>
</svg>
