<svg width="17" height="20" viewBox="0 0 17 20" fill="none" xmlns="http://www.w3.org/2000/svg">
<mask id="mask0_92_344" style="mask-type:alpha" maskUnits="userSpaceOnUse" x="-4" y="-3" width="25" height="25">
<rect x="-3.50001" y="-2.38477" width="24.0001" height="24.0001" fill="#D9D9D9"/>
</mask>
<g mask="url(#mask0_92_344)">
<path d="M1.80771 19.1154C1.30257 19.1154 0.875003 18.9404 0.525002 18.5904C0.175001 18.2404 0 17.8128 0 17.3077V3.92309C0 3.41795 0.175001 2.99039 0.525002 2.64038C0.875003 2.29038 1.30257 2.11538 1.80771 2.11538H3.19234V0.769203C3.19234 0.549985 3.26574 0.366977 3.41254 0.220176C3.55932 0.0733921 3.74233 0 3.96156 0C4.18078 0 4.36379 0.0733921 4.51059 0.220176C4.65738 0.366977 4.73077 0.549985 4.73077 0.769203V2.11538H12.3077V0.749978C12.3077 0.537161 12.3795 0.358959 12.5231 0.215376C12.6667 0.0717917 12.8449 0 13.0577 0C13.2705 0 13.4487 0.0717917 13.5923 0.215376C13.7359 0.358959 13.8077 0.537161 13.8077 0.749978V2.11538H15.1923C15.6974 2.11538 16.125 2.29038 16.475 2.64038C16.825 2.99039 17 3.41795 17 3.92309V17.3077C17 17.8128 16.825 18.2404 16.475 18.5904C16.125 18.9404 15.6974 19.1154 15.1923 19.1154H1.80771ZM1.80771 17.6154H15.1923C15.2692 17.6154 15.3398 17.5834 15.4039 17.5193C15.468 17.4551 15.5 17.3846 15.5 17.3077V7.9231H1.49998V17.3077C1.49998 17.3846 1.53203 17.4551 1.59613 17.5193C1.66025 17.5834 1.73077 17.6154 1.80771 17.6154ZM1.49998 6.42312H15.5V3.92309C15.5 3.84616 15.468 3.77563 15.4039 3.71151C15.3398 3.64741 15.2692 3.61536 15.1923 3.61536H1.80771C1.73077 3.61536 1.66025 3.64741 1.59613 3.71151C1.53203 3.77563 1.49998 3.84616 1.49998 3.92309V6.42312ZM8.50001 11.6923C8.25514 11.6923 8.04649 11.6061 7.87405 11.4337C7.70162 11.2612 7.6154 11.0526 7.6154 10.8077C7.6154 10.5628 7.70162 10.3542 7.87405 10.1818C8.04649 10.0093 8.25514 9.92311 8.50001 9.92311C8.74487 9.92311 8.95352 10.0093 9.12596 10.1818C9.29839 10.3542 9.38461 10.5628 9.38461 10.8077C9.38461 11.0526 9.29839 11.2612 9.12596 11.4337C8.95352 11.6061 8.74487 11.6923 8.50001 11.6923ZM4.49999 11.6923C4.25512 11.6923 4.04647 11.6061 3.87404 11.4337C3.70161 11.2612 3.61539 11.0526 3.61539 10.8077C3.61539 10.5628 3.70161 10.3542 3.87404 10.1818C4.04647 10.0093 4.25512 9.92311 4.49999 9.92311C4.74486 9.92311 4.95351 10.0093 5.12594 10.1818C5.29838 10.3542 5.38459 10.5628 5.38459 10.8077C5.38459 11.0526 5.29838 11.2612 5.12594 11.4337C4.95351 11.6061 4.74486 11.6923 4.49999 11.6923ZM12.5 11.6923C12.2552 11.6923 12.0465 11.6061 11.8741 11.4337C11.7016 11.2612 11.6154 11.0526 11.6154 10.8077C11.6154 10.5628 11.7016 10.3542 11.8741 10.1818C12.0465 10.0093 12.2552 9.92311 12.5 9.92311C12.7449 9.92311 12.9535 10.0093 13.126 10.1818C13.2984 10.3542 13.3846 10.5628 13.3846 10.8077C13.3846 11.0526 13.2984 11.2612 13.126 11.4337C12.9535 11.6061 12.7449 11.6923 12.5 11.6923ZM8.50001 15.6154C8.25514 15.6154 8.04649 15.5292 7.87405 15.3568C7.70162 15.1843 7.6154 14.9757 7.6154 14.7308C7.6154 14.4859 7.70162 14.2773 7.87405 14.1049C8.04649 13.9324 8.25514 13.8462 8.50001 13.8462C8.74487 13.8462 8.95352 13.9324 9.12596 14.1049C9.29839 14.2773 9.38461 14.4859 9.38461 14.7308C9.38461 14.9757 9.29839 15.1843 9.12596 15.3568C8.95352 15.5292 8.74487 15.6154 8.50001 15.6154ZM4.49999 15.6154C4.25512 15.6154 4.04647 15.5292 3.87404 15.3568C3.70161 15.1843 3.61539 14.9757 3.61539 14.7308C3.61539 14.4859 3.70161 14.2773 3.87404 14.1049C4.04647 13.9324 4.25512 13.8462 4.49999 13.8462C4.74486 13.8462 4.95351 13.9324 5.12594 14.1049C5.29838 14.2773 5.38459 14.4859 5.38459 14.7308C5.38459 14.9757 5.29838 15.1843 5.12594 15.3568C4.95351 15.5292 4.74486 15.6154 4.49999 15.6154ZM12.5 15.6154C12.2552 15.6154 12.0465 15.5292 11.8741 15.3568C11.7016 15.1843 11.6154 14.9757 11.6154 14.7308C11.6154 14.4859 11.7016 14.2773 11.8741 14.1049C12.0465 13.9324 12.2552 13.8462 12.5 13.8462C12.7449 13.8462 12.9535 13.9324 13.126 14.1049C13.2984 14.2773 13.3846 14.4859 13.3846 14.7308C13.3846 14.9757 13.2984 15.1843 13.126 15.3568C12.9535 15.5292 12.7449 15.6154 12.5 15.6154Z" fill="#6C757D"/>
</g>
</svg>
