<svg width="23" height="23" viewBox="0 0 23 23" fill="none" xmlns="http://www.w3.org/2000/svg">
<mask id="mask0_241_1222" style="mask-type:alpha" maskUnits="userSpaceOnUse" x="-4" y="-4" width="31" height="31">
<rect x="-3.02635" y="-3.02615" width="29.0527" height="29.0527" fill="#D9D9D9"/>
</mask>
<g mask="url(#mask0_241_1222)">
<path d="M11.5004 17.25C11.7578 17.25 11.9733 17.163 12.1471 16.989C12.321 16.815 12.4079 16.5994 12.4079 16.3421V11.1973C12.4079 10.9401 12.3208 10.7245 12.1468 10.5505C11.9727 10.3765 11.7569 10.2895 11.4996 10.2895C11.2422 10.2895 11.0267 10.3765 10.8529 10.5505C10.679 10.7245 10.5921 10.9401 10.5921 11.1973V16.3421C10.5921 16.5994 10.6792 16.815 10.8532 16.989C11.0273 17.163 11.2431 17.25 11.5004 17.25ZM11.5 8.21762C11.777 8.21762 12.0092 8.12392 12.1966 7.93653C12.384 7.74914 12.4777 7.51693 12.4777 7.2399C12.4777 6.9629 12.384 6.73069 12.1966 6.54328C12.0092 6.35589 11.777 6.26219 11.5 6.26219C11.223 6.26219 10.9908 6.35589 10.8034 6.54328C10.616 6.73069 10.5223 6.9629 10.5223 7.2399C10.5223 7.51693 10.616 7.74914 10.8034 7.93653C10.9908 8.12392 11.223 8.21762 11.5 8.21762ZM11.502 23C9.91147 23 8.41643 22.6982 7.01689 22.0945C5.61734 21.4909 4.39993 20.6716 3.36467 19.6368C2.32938 18.602 1.50978 17.3851 0.90587 15.9862C0.301957 14.5873 0 13.0926 0 11.502C0 9.91147 0.301826 8.41643 0.905476 7.01689C1.50913 5.61734 2.32835 4.39993 3.36315 3.36467C4.39797 2.32938 5.61485 1.50978 7.01378 0.905871C8.41268 0.301958 9.90742 0 11.498 0C13.0885 0 14.5836 0.301827 15.9831 0.905477C17.3827 1.50913 18.6001 2.32835 19.6353 3.36315C20.6706 4.39797 21.4902 5.61485 22.0941 7.01378C22.698 8.41269 23 9.90742 23 11.498C23 13.0885 22.6982 14.5836 22.0945 15.9831C21.4909 17.3827 20.6716 18.6001 19.6368 19.6353C18.602 20.6706 17.3851 21.4902 15.9862 22.0941C14.5873 22.698 13.0926 23 11.502 23ZM11.5 21.1842C14.2035 21.1842 16.4934 20.2461 18.3698 18.3698C20.2461 16.4934 21.1842 14.2035 21.1842 11.5C21.1842 8.79648 20.2461 6.50657 18.3698 4.63025C16.4934 2.75392 14.2035 1.81576 11.5 1.81576C8.79648 1.81576 6.50657 2.75392 4.63024 4.63025C2.75392 6.50657 1.81576 8.79648 1.81576 11.5C1.81576 14.2035 2.75392 16.4934 4.63024 18.3698C6.50657 20.2461 8.79648 21.1842 11.5 21.1842Z" fill="#52B788"/>
</g>
</svg>
