<svg width="23" height="20" viewBox="0 0 23 20" fill="none" xmlns="http://www.w3.org/2000/svg">
<mask id="mask0_222_1339" style="mask-type:alpha" maskUnits="userSpaceOnUse" x="-3" y="-6" width="29" height="30">
<rect x="-2.95605" y="-5.32083" width="28.3778" height="28.3778" fill="#D9D9D9"/>
</mask>
<g mask="url(#mask0_222_1339)">
<path d="M1.77358 15.9625V6.68512V7.16036V1.77358V15.9625ZM1.77358 4.61594H20.6921V2.13744C20.6921 2.04647 20.6542 1.96308 20.5784 1.88727C20.5026 1.81148 20.4192 1.77358 20.3282 1.77358H2.13744C2.04647 1.77358 1.96308 1.81148 1.88727 1.88727C1.81148 1.96308 1.77358 2.04647 1.77358 2.13744V4.61594ZM10.5484 17.736H2.13744C1.54016 17.736 1.03461 17.5291 0.620764 17.1153C0.206921 16.7014 0 16.1959 0 15.5986V2.13744C0 1.54016 0.206921 1.03461 0.620764 0.620764C1.03461 0.206921 1.54016 0 2.13744 0H20.3282C20.9255 0 21.4311 0.206921 21.8449 0.620764C22.2588 1.03461 22.4657 1.54016 22.4657 2.13744V8.04717C21.8214 7.61513 21.1226 7.28012 20.3692 7.04212C19.6158 6.80412 18.8237 6.68512 17.993 6.68512C17.0895 6.68512 16.2312 6.83633 15.4179 7.13875C14.6046 7.44117 13.8766 7.85841 13.2339 8.39048H1.77358V15.5986C1.77358 15.6896 1.81148 15.773 1.88727 15.8488C1.96308 15.9246 2.04647 15.9625 2.13744 15.9625H10.0436C10.0952 16.2778 10.1611 16.5813 10.2414 16.8731C10.3218 17.1649 10.4241 17.4526 10.5484 17.736ZM17.1062 19.9871L16.8652 18.5774C16.5605 18.4864 16.2744 18.3716 16.0068 18.2329C15.7392 18.0942 15.4857 17.9119 15.2462 17.686L13.8956 18.1499L12.986 16.6628L14.0729 15.7305C13.988 15.3986 13.9456 15.0666 13.9456 14.7346C13.9456 14.4026 13.988 14.0706 14.0729 13.7386L12.986 12.8064L13.8956 11.3193L15.2462 11.7831C15.4781 11.5573 15.7298 11.375 16.0011 11.2363C16.2725 11.0976 16.5605 10.9827 16.8652 10.8918L17.1062 9.48202H18.8798L19.1208 10.8918C19.4255 10.9827 19.7135 11.0976 19.9849 11.2363C20.2562 11.375 20.5079 11.5573 20.7398 11.7831L22.0905 11.3193L23 12.8064L21.9131 13.7386C21.998 14.0706 22.0404 14.4026 22.0404 14.7346C22.0404 15.0666 21.998 15.3986 21.9131 15.7305L23 16.6628L22.0905 18.1499L20.7398 17.686C20.5003 17.9119 20.2468 18.0942 19.9792 18.2329C19.7116 18.3716 19.4255 18.4864 19.1208 18.5774L18.8798 19.9871H17.1062ZM17.993 17.1904C18.6736 17.1904 19.2531 16.9512 19.7314 16.4729C20.2096 15.9947 20.4488 15.4152 20.4488 14.7346C20.4488 14.0539 20.2096 13.4745 19.7314 12.9962C19.2531 12.5179 18.6736 12.2788 17.993 12.2788C17.3124 12.2788 16.7329 12.5179 16.2546 12.9962C15.7764 13.4745 15.5372 14.0539 15.5372 14.7346C15.5372 15.4152 15.7764 15.9947 16.2546 16.4729C16.7329 16.9512 17.3124 17.1904 17.993 17.1904Z" fill="#52B788"/>
</g>
</svg>
