<svg width="19" height="15" viewBox="0 0 19 15" fill="none" xmlns="http://www.w3.org/2000/svg">
<mask id="mask0_0_842" style="mask-type:alpha" maskUnits="userSpaceOnUse" x="-3" y="-5" width="25" height="25">
<rect x="-2.50002" y="-4.5" width="24" height="24" fill="#D9D9D9"/>
</mask>
<g mask="url(#mask0_0_842)">
<path d="M7.94808 11.0865L12.9461 7.8865C13.0833 7.79292 13.1519 7.66408 13.1519 7.49998C13.1519 7.33588 13.0833 7.20703 12.9461 7.11345L7.94808 3.91348C7.79423 3.80963 7.63942 3.80129 7.48365 3.88848C7.32788 3.97564 7.25 4.10961 7.25 4.29038V10.7096C7.25 10.8903 7.32788 11.0243 7.48365 11.1115C7.63942 11.1987 7.79423 11.1903 7.94808 11.0865ZM1.8077 15C1.30257 15 0.875 14.825 0.525 14.475C0.175 14.125 0 13.6974 0 13.1923V1.8077C0 1.30257 0.175 0.875 0.525 0.525C0.875 0.175 1.30257 0 1.8077 0H17.1923C17.6974 0 18.125 0.175 18.475 0.525C18.825 0.875 19 1.30257 19 1.8077V13.1923C19 13.6974 18.825 14.125 18.475 14.475C18.125 14.825 17.6974 15 17.1923 15H1.8077ZM1.8077 13.5H17.1923C17.2692 13.5 17.3397 13.4679 17.4038 13.4038C17.4679 13.3397 17.5 13.2692 17.5 13.1923V1.8077C17.5 1.73077 17.4679 1.66024 17.4038 1.59613C17.3397 1.53203 17.2692 1.49998 17.1923 1.49998H1.8077C1.73077 1.49998 1.66024 1.53203 1.59613 1.59613C1.53202 1.66024 1.49998 1.73077 1.49998 1.8077V13.1923C1.49998 13.2692 1.53202 13.3397 1.59613 13.4038C1.66024 13.4679 1.73077 13.5 1.8077 13.5Z" fill="#495057"/>
</g>
</svg>
