<svg width="8" height="9" viewBox="0 0 8 9" fill="none" xmlns="http://www.w3.org/2000/svg">
<mask id="mask0_86_1047" style="mask-type:alpha" maskUnits="userSpaceOnUse" x="-3" y="-2" width="14" height="13">
<rect x="-2.39861" y="-1.92701" width="12.7926" height="12.7926" fill="#D9D9D9"/>
</mask>
<g mask="url(#mask0_86_1047)">
<path d="M1.49657 8.99989C1.2316 8.99989 1.00477 8.90554 0.816074 8.71684C0.627375 8.52815 0.533025 8.30131 0.533025 8.03634V1.27104H0.399769C0.286501 1.27104 0.191556 1.23271 0.114933 1.15605C0.0383112 1.0794 0 0.984417 0 0.871096C0 0.757784 0.0383112 0.662861 0.114933 0.586327C0.191556 0.509785 0.286501 0.471514 0.399769 0.471514H2.3986C2.3986 0.340993 2.44455 0.229778 2.53647 0.137867C2.62838 0.0459558 2.73959 0 2.87011 0H5.12523C5.25575 0 5.36697 0.0459558 5.45888 0.137867C5.55079 0.229778 5.59675 0.340993 5.59675 0.471514H7.59558C7.70885 0.471514 7.80379 0.509843 7.88041 0.586501C7.95704 0.663159 7.99535 0.758143 7.99535 0.871455C7.99535 0.984777 7.95704 1.0797 7.88041 1.15624C7.80379 1.23277 7.70885 1.27104 7.59558 1.27104H7.46232V8.03634C7.46232 8.30131 7.36797 8.52815 7.17927 8.71684C6.99058 8.90554 6.76375 8.99989 6.49877 8.99989H1.49657ZM6.6628 1.27104H1.33255V8.03634C1.33255 8.08418 1.34793 8.12347 1.37868 8.15423C1.40944 8.18499 1.44873 8.20036 1.49657 8.20036H6.49877C6.54661 8.20036 6.58591 8.18499 6.61666 8.15423C6.64742 8.12347 6.6628 8.08418 6.6628 8.03634V1.27104ZM3.01382 7.13431C3.12713 7.13431 3.22205 7.096 3.29858 7.01938C3.37513 6.94276 3.4134 6.84782 3.4134 6.73456V2.73684C3.4134 2.62358 3.37507 2.52864 3.29841 2.45202C3.22175 2.3754 3.12677 2.33709 3.01346 2.33709C2.90013 2.33709 2.80521 2.3754 2.72867 2.45202C2.65214 2.52864 2.61387 2.62358 2.61387 2.73684V6.73456C2.61387 6.84782 2.6522 6.94276 2.72886 7.01938C2.80551 7.096 2.90049 7.13431 3.01382 7.13431ZM4.98189 7.13431C5.09521 7.13431 5.19014 7.096 5.26667 7.01938C5.34321 6.94276 5.38147 6.84782 5.38147 6.73456V2.73684C5.38147 2.62358 5.34314 2.52864 5.26649 2.45202C5.18984 2.3754 5.09485 2.33709 4.98153 2.33709C4.86822 2.33709 4.77329 2.3754 4.69676 2.45202C4.62022 2.52864 4.58195 2.62358 4.58195 2.73684V6.73456C4.58195 6.84782 4.62028 6.94276 4.69693 7.01938C4.77359 7.096 4.86858 7.13431 4.98189 7.13431Z" fill="white"/>
</g>
</svg>
