<svg width="15" height="15" viewBox="0 0 15 15" fill="none" xmlns="http://www.w3.org/2000/svg">
<mask id="mask0_15_375" style="mask-type:alpha" maskUnits="userSpaceOnUse" x="-3" y="-3" width="21" height="21">
<rect x="-2.96983" y="-2.95307" width="20.9396" height="20.9396" fill="#52B788"/>
</mask>
<g mask="url(#mask0_15_375)">
<path d="M14.0805 15L8.60065 9.52009C8.1644 9.88027 7.66273 10.1621 7.09561 10.3657C6.5285 10.5693 5.94181 10.6711 5.33555 10.6711C3.84433 10.6711 2.58226 10.1548 1.54936 9.12213C0.516453 8.08949 0 6.82775 0 5.33692C0 3.84608 0.516322 2.58388 1.54897 1.55032C2.58161 0.516772 3.84335 0 5.3342 0C6.82502 0 8.08722 0.516454 9.12078 1.54936C10.1543 2.58226 10.6711 3.84433 10.6711 5.33555C10.6711 5.95859 10.5665 6.55367 10.3573 7.12078C10.1482 7.6879 9.86909 8.18118 9.52009 8.60065L15 14.0805L14.0805 15ZM5.33555 9.36241C6.45972 9.36241 7.4119 8.97231 8.1921 8.19211C8.97231 7.4119 9.36241 6.45972 9.36241 5.33555C9.36241 4.21138 8.97231 3.2592 8.1921 2.47899C7.4119 1.69879 6.45972 1.30868 5.33555 1.30868C4.21138 1.30868 3.25919 1.69879 2.47899 2.47899C1.6988 3.2592 1.3087 4.21138 1.3087 5.33555C1.3087 6.45972 1.6988 7.4119 2.47899 8.19211C3.25919 8.97231 4.21138 9.36241 5.33555 9.36241Z" fill="#52B788"/>
</g>
</svg>
