<svg width="32" height="33" viewBox="0 0 32 33" fill="none" xmlns="http://www.w3.org/2000/svg">
<path d="M12 23.6076L23.2 16.2811L12 8.95462V23.6076ZM16 32.5623C13.7867 32.5623 11.7067 32.1349 9.76 31.2801C7.81333 30.4254 6.12 29.2653 4.68 27.8C3.24 26.3347 2.1 24.6116 1.26 22.6308C0.42 20.6499 0 18.5333 0 16.2811C0 14.0289 0.42 11.9124 1.26 9.93149C2.1 7.95062 3.24 6.22753 4.68 4.76223C6.12 3.29693 7.81333 2.1369 9.76 1.28214C11.7067 0.42738 13.7867 0 16 0C18.2133 0 20.2933 0.42738 22.24 1.28214C24.1867 2.1369 25.88 3.29693 27.32 4.76223C28.76 6.22753 29.9 7.95062 30.74 9.93149C31.58 11.9124 32 14.0289 32 16.2811C32 18.5333 31.58 20.6499 30.74 22.6308C29.9 24.6116 28.76 26.3347 27.32 27.8C25.88 29.2653 24.1867 30.4254 22.24 31.2801C20.2933 32.1349 18.2133 32.5623 16 32.5623Z" fill="#F8F9FA" fill-opacity="0.25"/>
</svg>
