<svg width="15" height="15" viewBox="0 0 15 15" fill="none" xmlns="http://www.w3.org/2000/svg">
<mask id="mask0_25_412" style="mask-type:alpha" maskUnits="userSpaceOnUse" x="-4" y="-4" width="23" height="23">
<rect x="-3.08833" y="-3.08833" width="21.1765" height="21.1765" fill="#D9D9D9"/>
</mask>
<g mask="url(#mask0_25_412)">
<path d="M0.797517 15C0.57156 15 0.382155 14.9236 0.229302 14.7707C0.0764338 14.6178 0 14.4284 0 14.2025V12.6737C0 12.4585 0.0412942 12.2534 0.123883 12.0584C0.206456 11.8634 0.320141 11.6935 0.464935 11.5487L11.6386 0.380097C11.772 0.258906 11.9194 0.165258 12.0806 0.0991546C12.2418 0.0330515 12.4109 0 12.5878 0C12.7647 0 12.9361 0.0313976 13.1019 0.0941919C13.2678 0.156971 13.4146 0.256795 13.5424 0.393663L14.6199 1.48472C14.7568 1.61254 14.8544 1.75963 14.9126 1.92598C14.9709 2.09232 15 2.25866 15 2.425C15 2.60243 14.9697 2.77175 14.9091 2.93297C14.8485 3.09421 14.7521 3.24154 14.6199 3.37497L3.45131 14.5351C3.30652 14.6799 3.13662 14.7935 2.94162 14.8761C2.7466 14.9587 2.54151 15 2.32633 15H0.797517ZM12.3988 3.70078L13.6765 2.43153L12.5685 1.32351L11.2992 2.60123L12.3988 3.70078Z" fill="white"/>
</g>
</svg>
