<svg width="11" height="7" viewBox="0 0 11 7" fill="none" xmlns="http://www.w3.org/2000/svg">
<mask id="mask0_25_400" style="mask-type:alpha" maskUnits="userSpaceOnUse" x="-7" y="-9" width="25" height="25">
<rect x="-6.8577" y="-8.89617" width="24.7105" height="24.7105" fill="#D9D9D9"/>
</mask>
<g mask="url(#mask0_25_400)">
<path d="M5.49758 6.19938C5.37349 6.19938 5.258 6.17957 5.15109 6.13997C5.04417 6.10036 4.94253 6.03238 4.84617 5.93603L0.218899 1.30876C0.0763329 1.16621 0.00340263 0.987022 0.000107899 0.771199C-0.00320399 0.555377 0.0697263 0.372887 0.218899 0.223732C0.368054 0.0745765 0.548887 0 0.761397 0C0.973907 0 1.15474 0.0745765 1.3039 0.223732L5.49758 4.41741L9.69126 0.223732C9.83381 0.0811832 10.013 0.00825285 10.2288 0.00494096C10.4446 0.00164622 10.6271 0.0745765 10.7763 0.223732C10.9254 0.372887 11 0.553729 11 0.766257C11 0.978767 10.9254 1.1596 10.7763 1.30876L6.14898 5.93603C6.05263 6.03238 5.95099 6.10036 5.84406 6.13997C5.73716 6.17957 5.62166 6.19938 5.49758 6.19938Z" fill="#6C757D"/>
</g>
</svg>
