<svg width="18" height="15" viewBox="0 0 18 15" fill="none" xmlns="http://www.w3.org/2000/svg">
<mask id="mask0_92_602" style="mask-type:alpha" maskUnits="userSpaceOnUse" x="-2" y="-4" width="22" height="22">
<rect x="-1.23408" y="-3.29771" width="20.4255" height="20.4255" fill="#6C757D"/>
</mask>
<g mask="url(#mask0_92_602)">
<path d="M12.3191 8.08511L11 6.76596C11.0567 6.22695 10.8936 5.76241 10.5106 5.37234C10.1277 4.98227 9.66667 4.8156 9.12766 4.87234L7.80851 3.55319C7.99505 3.48227 8.18707 3.42908 8.38457 3.39362C8.58209 3.35816 8.78014 3.34043 8.97872 3.34043C9.97163 3.34043 10.8156 3.68794 11.5106 4.38298C12.2057 5.07801 12.5532 5.92199 12.5532 6.91489C12.5532 7.11348 12.5355 7.31206 12.5 7.51064C12.4645 7.70922 12.4043 7.90071 12.3191 8.08511ZM15.1489 10.9149L14.0426 9.80851C14.5532 9.41135 15.0177 8.97518 15.4362 8.5C15.8546 8.02482 16.2057 7.49645 16.4894 6.91489C15.7943 5.48227 14.7695 4.35816 13.4149 3.54255C12.0603 2.72695 10.5816 2.31915 8.97872 2.31915C8.61145 2.31915 8.25367 2.3422 7.9054 2.3883C7.55712 2.4344 7.20567 2.50355 6.85106 2.59574L5.61702 1.3617C6.15603 1.14894 6.70599 1 7.26692 0.914894C7.82785 0.829787 8.39845 0.787234 8.97872 0.787234C10.8794 0.787234 12.6277 1.27305 14.2234 2.24468C15.8191 3.21631 17.0293 4.55406 17.8537 6.25794C17.9087 6.36967 17.9468 6.47886 17.9681 6.58551C17.9894 6.69216 18 6.80196 18 6.91489C18 7.02783 17.9894 7.13762 17.9681 7.24428C17.9468 7.35093 17.9149 7.46099 17.8723 7.57447C17.5603 8.24113 17.1702 8.85106 16.7021 9.40426C16.234 9.95745 15.7163 10.461 15.1489 10.9149ZM8.97872 13.0426C7.12057 13.0426 5.41135 12.5496 3.85106 11.5638C2.29078 10.578 1.06332 9.26816 0.168681 7.63426C0.0987802 7.52347 0.0531915 7.40762 0.0319149 7.28668C0.0106383 7.16576 0 7.04165 0 6.91434C0 6.78705 0.0106383 6.66312 0.0319149 6.54255C0.0531915 6.42199 0.0992908 6.30496 0.170213 6.19149C0.496454 5.55319 0.877759 4.95758 1.31413 4.40466C1.75051 3.85175 2.24864 3.34807 2.80851 2.89362L1.21277 1.29787C1.05674 1.14184 0.978723 0.964539 0.978723 0.765957C0.978723 0.567376 1.05674 0.390071 1.21277 0.234043C1.36879 0.0780142 1.54965 0 1.75532 0C1.96099 0 2.14184 0.0780142 2.29787 0.234043L15.6596 13.5957C15.8156 13.7518 15.8936 13.9291 15.8936 14.1277C15.8936 14.3262 15.8156 14.5035 15.6596 14.6596C15.5035 14.8156 15.3227 14.8936 15.117 14.8936C14.9113 14.8936 14.7305 14.8156 14.5745 14.6596L12.3404 12.4468C11.7957 12.6454 11.2432 12.7943 10.6829 12.8936C10.1226 12.9929 9.55457 13.0426 8.97872 13.0426ZM3.89362 4C3.39716 4.39716 2.93617 4.83333 2.51064 5.30851C2.08511 5.78369 1.73759 6.31915 1.46809 6.91489C2.16312 8.34752 3.18794 9.47163 4.54255 10.2872C5.89716 11.1028 7.37589 11.5106 8.97872 11.5106C9.35045 11.5106 9.71289 11.4858 10.066 11.4362C10.4192 11.3865 10.7731 11.3191 11.1277 11.234L10.1702 10.2766C9.97163 10.3475 9.77305 10.4007 9.57447 10.4362C9.37589 10.4716 9.17731 10.4894 8.97872 10.4894C7.98582 10.4894 7.14184 10.1418 6.44681 9.44681C5.75177 8.75177 5.40426 7.9078 5.40426 6.91489C5.40426 6.71631 5.42908 6.51773 5.47872 6.31915C5.52837 6.12057 5.57447 5.92199 5.61702 5.7234L3.89362 4Z" fill="#6C757D"/>
</g>
</svg>
