<svg width="11" height="8" viewBox="0 0 11 8" fill="none" xmlns="http://www.w3.org/2000/svg">
<mask id="mask0_7_230" style="mask-type:alpha" maskUnits="userSpaceOnUse" x="-6" y="-7" width="22" height="22">
<rect x="-5.05534" y="-6.33447" width="20.6852" height="20.6852" fill="white"/>
</mask>
<g mask="url(#mask0_7_230)">
<path d="M3.45577 5.83686L9.05147 0.262724C9.23353 0.080665 9.44143 -0.00677348 9.67516 0.000408894C9.9089 0.00759127 10.1168 0.102212 10.2989 0.284271C10.4809 0.46633 10.5719 0.67423 10.5719 0.907974C10.5719 1.1417 10.4809 1.3496 10.2989 1.53166L4.10359 7.72693C3.92153 7.90899 3.70918 8.00001 3.46655 8.00001C3.22391 8.00001 3.01156 7.90899 2.82951 7.72693L0.275698 5.17312C0.0936387 4.99106 0.00174762 4.78317 2.38513e-05 4.54944C-0.00168555 4.31569 0.088489 4.10779 0.270548 3.92573C0.452607 3.74368 0.660508 3.65265 0.894251 3.65265C1.12798 3.65265 1.33587 3.74368 1.51793 3.92573L3.45577 5.83686Z" fill="white"/>
</g>
</svg>
