<svg width="7" height="13" viewBox="0 0 7 13" fill="none" xmlns="http://www.w3.org/2000/svg">
<mask id="mask0_222_1343" style="mask-type:alpha" maskUnits="userSpaceOnUse" x="-5" y="-2" width="17" height="17">
<rect x="-4.53489" y="-1.67642" width="16.0952" height="16.0952" fill="#D9D9D9"/>
</mask>
<g mask="url(#mask0_222_1343)">
<path d="M5.17254 6.37102L0.243375 1.44186C0.0757168 1.27421 -0.0053182 1.07581 0.000270417 0.846676C0.00585904 0.617542 0.0924826 0.419146 0.260141 0.251488C0.4278 0.0838293 0.626196 0 0.855329 0C1.08446 0 1.28286 0.0838293 1.45052 0.251488L6.59763 5.41537C6.73176 5.5495 6.83236 5.70039 6.89942 5.86805C6.96648 6.03571 7.00001 6.20337 7.00001 6.37102C7.00001 6.53868 6.96648 6.70634 6.89942 6.874C6.83236 7.04166 6.73176 7.19255 6.59763 7.32668L1.43375 12.4906C1.26609 12.6582 1.07049 12.7393 0.846946 12.7337C0.623401 12.7281 0.4278 12.6415 0.260141 12.4738C0.0924826 12.3061 0.00865334 12.1077 0.00865334 11.8786C0.00865334 11.6495 0.0924826 11.4511 0.260141 11.2834L5.17254 6.37102Z" fill="#52B788"/>
</g>
</svg>
