<svg width="21" height="22" viewBox="0 0 21 22" fill="none" xmlns="http://www.w3.org/2000/svg">
<path d="M21 10.9524C21 10.0715 20.9285 9.42862 20.7738 8.76196H10.7143V12.7381H16.619C16.5 13.7262 15.8571 15.2143 14.4285 16.2143L14.4085 16.3474L17.5892 18.8114L17.8095 18.8334C19.8333 16.9643 21 14.2143 21 10.9524Z" fill="#4285F4"/>
<path d="M10.7143 21.4285C13.6071 21.4285 16.0356 20.4761 17.8095 18.8333L14.4285 16.2142C13.5238 16.8451 12.3095 17.2856 10.7143 17.2856C7.88097 17.2856 5.47623 15.4166 4.619 12.8333L4.49335 12.844L1.18608 15.4035L1.14283 15.5237C2.90472 19.0237 6.52377 21.4285 10.7143 21.4285Z" fill="#34A853"/>
<path d="M4.619 12.8333C4.39282 12.1666 4.26191 11.4523 4.26191 10.7142C4.26191 9.97608 4.39282 9.26183 4.6071 8.59517L4.60111 8.45319L1.25239 5.85254L1.14283 5.90465C0.416671 7.35705 0 8.98804 0 10.7142C0 12.4404 0.416671 14.0713 1.14283 15.5237L4.619 12.8333Z" fill="#FBBC05"/>
<path d="M10.7143 4.14283C12.7262 4.14283 14.0833 5.01187 14.8571 5.73811L17.8809 2.78571C16.0238 1.05953 13.6071 0 10.7143 0C6.52377 0 2.90472 2.40474 1.14283 5.90472L4.6071 8.59523C5.47623 6.0119 7.88097 4.14283 10.7143 4.14283Z" fill="#EB4335"/>
</svg>
