<svg width="374" height="296" viewBox="0 0 374 296" fill="none" xmlns="http://www.w3.org/2000/svg">
<path d="M302.198 32.3664C302.064 31.9844 301.902 31.6125 301.713 31.2529C299.005 25.8489 292.284 23.5943 286.703 26.2164C284.46 27.2699 282.643 29.0158 281.538 31.1791C280.765 32.7014 280.369 34.3764 280.379 36.0724C280.31 42.0784 285.283 47.002 291.487 47.0686C297.69 47.1359 302.776 42.3208 302.845 36.3147C302.846 36.1838 302.845 36.0521 302.842 35.9211C302.837 34.7092 302.619 33.5067 302.198 32.365V32.3664Z" fill="#F0F0F0"/>
<path d="M291.511 40.0547C289.645 40.0547 287.948 39.1416 287.299 37.7835C287.227 37.6301 287.294 37.4493 287.451 37.3755C287.606 37.3024 287.793 37.3639 287.868 37.5136L287.873 37.5223C288.433 38.672 289.903 39.4433 291.528 39.4433C293.154 39.4433 294.625 38.6727 295.184 37.5223C295.258 37.3697 295.447 37.3031 295.604 37.3747H295.606C295.763 37.4485 295.83 37.6294 295.758 37.7828C295.075 39.1409 293.378 40.054 291.512 40.054L291.511 40.0547Z" fill="#E0E0E0"/>
<path d="M295.724 33.4915C296.275 33.4915 296.722 33.9242 296.722 34.4582C296.722 34.9922 296.275 35.4248 295.724 35.4248C295.172 35.4248 294.725 34.9922 294.725 34.4582C294.725 33.9242 295.172 33.4915 295.724 33.4915Z" fill="#E0E0E0"/>
<path d="M288.298 34.4582C288.298 34.9922 287.851 35.4248 287.3 35.4248C286.748 35.4248 286.301 34.9922 286.301 34.4582C286.301 33.9242 286.748 33.4915 287.3 33.4915C287.85 33.4937 288.296 33.9249 288.298 34.4582Z" fill="#E0E0E0"/>
<path d="M331.754 198.969H196.677C194.262 198.969 192.297 197.067 192.297 194.728V4.24134C192.297 1.90289 194.262 0 196.677 0H331.754C334.169 0 336.135 1.90216 336.135 4.24134V194.727C336.135 197.067 334.169 198.969 331.754 198.969V198.969ZM196.677 0.180883C194.364 0.180883 192.483 2.00273 192.483 4.24134V194.727C192.483 196.967 194.365 198.788 196.677 198.788H331.754C334.067 198.788 335.948 196.967 335.948 194.727V4.24134C335.948 2.00273 334.066 0.180883 331.754 0.180883H196.677Z" fill="#E0E0E0"/>
<path d="M175.991 198.969H40.9134C38.498 198.969 36.5325 197.067 36.5325 194.728V4.24134C36.5325 1.90289 38.4973 0 40.9134 0H175.991C178.406 0 180.371 1.90216 180.371 4.24134V194.727C180.371 197.067 178.406 198.969 175.991 198.969V198.969ZM40.9134 0.180883C38.6011 0.180883 36.7194 2.00273 36.7194 4.24134V194.727C36.7194 196.967 38.6011 198.788 40.9134 198.788H175.991C178.304 198.788 180.185 196.967 180.185 194.727V4.24134C180.185 2.00273 178.303 0.180883 175.991 0.180883H40.9134Z" fill="#E0E0E0"/>
<path d="M373.664 243.155H0V243.335H373.664V243.155Z" fill="#E0E0E0"/>
<path d="M50.6181 253.476H38.616V253.656H50.6181V253.476Z" fill="#E0E0E0"/>
<path d="M167.313 251.515H127.309V251.695H167.313V251.515Z" fill="#E0E0E0"/>
<path d="M78.4559 260.197H51.3653V260.378H78.4559V260.197Z" fill="#E0E0E0"/>
<path d="M315.03 251.421H282.753V251.601H315.03V251.421Z" fill="#E0E0E0"/>
<path d="M326.419 251.421H321.688V251.601H326.419V251.421Z" fill="#E0E0E0"/>
<path d="M276.587 255.929H236.314V256.109H276.587V255.929Z" fill="#E0E0E0"/>
<path d="M237.463 136.666C241.628 132.899 241.848 126.577 237.954 122.547C234.06 118.516 227.527 118.303 223.361 122.071C219.196 125.839 218.977 132.16 222.87 136.191C226.764 140.221 233.298 140.434 237.463 136.666Z" fill="#E0E0E0"/>
<path d="M224.449 136.302C224.648 135.89 226.511 132.729 230.667 132.728C235.278 132.728 236.948 135.9 236.948 135.9C236.948 135.9 234.346 138.164 230.823 138.338C227.41 138.508 224.449 136.302 224.449 136.302V136.302Z" fill="#F5F5F5"/>
<path d="M234.689 127.753C234.689 129.943 232.855 131.719 230.592 131.719C228.329 131.719 226.495 129.944 226.495 127.753C226.495 125.562 228.329 123.787 230.592 123.787C232.855 123.787 234.689 125.562 234.689 127.753Z" fill="#F5F5F5"/>
<path d="M51.7833 225.277C52.6969 219.829 48.876 214.697 43.2492 213.813C37.6224 212.93 32.3204 216.63 31.4069 222.077C30.4934 227.525 34.3142 232.657 39.941 233.54C45.5678 234.424 50.8698 230.724 51.7833 225.277Z" fill="#E0E0E0"/>
<path d="M35.6354 230.611C35.8335 230.198 37.6973 227.037 41.8532 227.037C46.4635 227.037 48.1337 230.209 48.1337 230.209C48.1337 230.209 45.5315 232.473 42.0094 232.647C38.5956 232.816 35.6354 230.611 35.6354 230.611Z" fill="#F5F5F5"/>
<path d="M45.8746 222.062C45.8746 224.253 44.0407 226.028 41.7778 226.028C39.5149 226.028 37.6809 224.253 37.6809 222.062C37.6809 219.871 39.5149 218.095 41.7778 218.095C44.0407 218.095 45.8746 219.871 45.8746 222.062Z" fill="#F5F5F5"/>
<path d="M239.547 261.182C249.521 261.182 257.606 253.354 257.606 243.697C257.606 234.041 249.521 226.213 239.547 226.213C229.573 226.213 221.488 234.041 221.488 243.697C221.488 253.354 229.573 261.182 239.547 261.182Z" fill="#E0E0E0"/>
<path d="M229.121 255.826C229.467 255.104 232.728 249.574 240 249.573C248.066 249.572 250.988 255.123 250.988 255.123C250.988 255.123 246.436 259.083 240.273 259.389C234.301 259.686 229.121 255.826 229.121 255.826Z" fill="#F5F5F5"/>
<path d="M239.868 247.807C243.827 247.807 247.036 244.7 247.036 240.868C247.036 237.035 243.827 233.928 239.868 233.928C235.91 233.928 232.701 237.035 232.701 240.868C232.701 244.7 235.91 247.807 239.868 247.807Z" fill="#F5F5F5"/>
<path d="M220.627 29.6985C224.521 25.9303 224.521 19.8208 220.627 16.0526C216.733 12.2844 210.419 12.2843 206.525 16.0526C202.63 19.8208 202.63 25.9303 206.525 29.6985C210.419 33.4667 216.733 33.4667 220.627 29.6985Z" fill="#E0E0E0"/>
<path d="M207.816 29.5714C208.007 29.1728 209.807 26.1195 213.821 26.1195C218.275 26.1195 219.887 29.1829 219.887 29.1829C219.887 29.1829 217.374 31.3694 213.972 31.538C210.675 31.7015 207.816 29.5714 207.816 29.5714Z" fill="#F5F5F5"/>
<path d="M217.706 21.3137C217.706 23.4293 215.934 25.1448 213.749 25.1448C211.564 25.1448 209.792 23.4293 209.792 21.3137C209.792 19.1981 211.563 17.4826 213.749 17.4826C215.935 17.4826 217.706 19.1981 217.706 21.3137Z" fill="#F5F5F5"/>
<path d="M329.285 176.096C329.036 175.401 328.739 174.723 328.395 174.068C323.458 164.23 311.219 160.13 301.057 164.91C290.896 169.69 286.661 181.54 291.598 191.377C296.535 201.215 308.775 205.315 318.936 200.535C326.031 197.198 330.511 190.209 330.451 182.573C330.444 180.365 330.05 178.175 329.285 176.095V176.096Z" fill="#E0E0E0"/>
<path d="M323.65 177.022C322.396 175.132 320.089 175.913 318.916 177.424C317.687 175.959 315.342 175.272 314.171 177.206C312.186 180.473 316.476 183.378 318.49 184.506L319.068 184.827L319.63 184.483C321.604 183.278 325.768 180.211 323.65 177.023L323.65 177.022Z" fill="#FAFAFA"/>
<path d="M306.026 177.342C304.798 175.435 302.481 176.18 301.288 177.67C300.077 176.193 297.746 175.466 296.539 177.382C294.505 180.619 298.743 183.59 300.751 184.751L301.314 185.078L301.887 184.743C303.874 183.569 308.095 180.56 306.026 177.342Z" fill="#FAFAFA"/>
<path d="M308.949 193.782C305.06 192.917 303.663 188.63 303.479 186.295C303.486 185.991 303.77 185.749 304.113 185.755C304.414 185.76 304.667 185.956 304.714 186.22C304.714 186.288 305.297 192.713 310.224 192.863C315.149 193.013 315.955 186.172 315.963 186.098C315.995 185.798 316.295 185.579 316.632 185.607H316.638C316.972 185.632 317.22 185.892 317.192 186.188L317.19 186.206C317.19 186.533 316.255 194.149 310.185 193.958C309.767 193.94 309.353 193.879 308.949 193.781V193.782Z" fill="#EBEBEB"/>
<path d="M323.348 185.314C322.948 185.708 322.473 185.894 322.288 185.715C322.104 185.537 322.288 185.076 322.672 184.675C323.055 184.275 323.539 184.104 323.731 184.275C323.923 184.445 323.746 184.921 323.348 185.314Z" fill="#F5F5F5"/>
<path d="M325.035 185.507C324.636 185.908 324.16 186.087 323.975 185.908C323.791 185.73 323.975 185.269 324.359 184.876C324.742 184.482 325.226 184.296 325.411 184.475C325.595 184.653 325.442 185.114 325.035 185.507Z" fill="#F5F5F5"/>
<path d="M297.621 185.581C298.058 185.938 298.549 186.064 298.711 185.871C298.872 185.678 298.657 185.239 298.22 184.883C297.782 184.526 297.291 184.401 297.122 184.594C296.953 184.787 297.176 185.233 297.621 185.581Z" fill="#F5F5F5"/>
<path d="M295.955 185.953C296.393 186.31 296.884 186.436 297.053 186.243C297.222 186.049 296.999 185.604 296.554 185.255C296.109 184.905 295.626 184.772 295.464 184.966C295.303 185.159 295.518 185.597 295.955 185.953Z" fill="#F5F5F5"/>
<path d="M69.9095 39.7399C69.6606 39.0454 69.3632 38.3681 69.0194 37.7119C64.0825 27.874 51.8428 23.7745 41.6814 28.5542C31.52 33.3345 27.2849 45.1838 32.2225 55.0216C37.1593 64.8595 49.3998 68.959 59.5605 64.1794C66.6548 60.8424 71.1351 53.8531 71.0753 46.217C71.0686 44.0095 70.674 41.8194 69.9095 39.7399Z" fill="#EBEBEB"/>
<path d="M64.2731 40.666C63.0191 38.7762 60.7121 39.5576 59.5395 41.0676C58.3102 39.6032 55.9658 38.9158 54.7947 40.8505C52.8083 44.1173 57.0995 47.0222 59.1135 48.1502L59.6912 48.47L60.2532 48.1264C62.2276 46.9209 66.391 43.8546 64.2731 40.666Z" fill="#FAFAFA"/>
<path d="M46.6499 40.9873C45.4221 39.0801 43.1046 39.8253 41.9119 41.3151C40.7005 39.8384 38.3703 39.1112 37.1626 41.0264C35.1291 44.2642 39.3665 47.235 41.3746 48.3956L41.938 48.7233L42.5112 48.3883C44.4976 47.214 48.7185 44.2049 46.6499 40.9873Z" fill="#FAFAFA"/>
<path d="M49.5731 57.4259C45.6833 56.5613 44.2865 52.2737 44.1027 49.9396C44.1094 49.635 44.3934 49.3933 44.7364 49.3991C45.0376 49.4041 45.2909 49.6002 45.338 49.8643C45.338 49.9323 45.9209 56.3573 50.8473 56.5071C55.7729 56.6568 56.5786 49.8166 56.5868 49.742C56.6189 49.4425 56.9186 49.2233 57.2556 49.2515H57.2616C57.5957 49.2761 57.8438 49.5358 57.8161 49.8318L57.8139 49.8506C57.8139 50.1769 56.8782 57.7935 50.8084 57.6025C50.3907 57.5837 49.9767 57.5243 49.5731 57.4259Z" fill="#E0E0E0"/>
<path d="M63.9709 48.9585C63.5716 49.3521 63.0961 49.538 62.9114 49.3593C62.7267 49.1806 62.9114 48.7204 63.295 48.3196C63.6786 47.9187 64.1623 47.7473 64.3545 47.9187C64.5467 48.0895 64.3695 48.5649 63.9709 48.9585Z" fill="#F5F5F5"/>
<path d="M65.6593 49.1516C65.26 49.5532 64.7845 49.7311 64.5998 49.5532C64.4158 49.3744 64.5998 48.9143 64.9834 48.5207C65.367 48.1271 65.8508 47.9411 66.0354 48.1198C66.2201 48.2986 66.0661 48.758 65.6593 49.1516Z" fill="#F5F5F5"/>
<path d="M38.244 49.2262C38.6814 49.5829 39.1727 49.7087 39.3342 49.5156C39.4957 49.3224 39.2804 48.8839 38.8429 48.5279C38.4055 48.1712 37.9142 48.0453 37.7452 48.2385C37.5763 48.4317 37.7991 48.8767 38.244 49.2262Z" fill="#F5F5F5"/>
<path d="M36.5791 49.5973C37.0165 49.954 37.5078 50.0799 37.6767 49.8867C37.8457 49.6936 37.6229 49.2479 37.178 48.8991C36.7323 48.5497 36.2493 48.4165 36.0878 48.6097C35.9263 48.8029 36.1416 49.2414 36.5791 49.5973Z" fill="#F5F5F5"/>
<path d="M346.458 291.563C346.458 294.014 276.571 296 190.36 296C104.149 296 34.262 294.013 34.262 291.563C34.262 289.113 104.149 287.127 190.36 287.127C276.571 287.127 346.458 289.113 346.458 291.563Z" fill="#F5F5F5"/>
<path d="M315.011 273.805L311.794 290.897H292.756L289.346 273.805H315.011Z" fill="#263238"/>
<path d="M300.061 272.073C299.528 265.573 295.844 258.998 289.917 254.535C288.436 253.423 285.327 251.22 287.848 250.057C290.728 248.725 296.252 254.942 297.026 256.092C295.391 251.139 290.437 247.552 285.061 245.498C282.405 244.482 279.872 243.519 282.702 242.011C285.532 240.502 291.657 244.161 293.076 245.732C289.719 242.106 285.477 238.476 281.129 236.307C276.329 233.912 278.497 229.918 283.445 233.007C286.51 234.923 291.552 239.712 291.552 239.712C291.552 239.712 283.631 227.408 286.022 226.302C289.119 224.865 294.543 241.627 296.042 244.933C295.639 242.193 295.262 235.564 297.9 235.277C300.309 235.019 299.72 251.522 300.278 254.435C300.63 255.704 300.792 256.351 301.071 257.629C301.331 255.431 302.928 249.635 305.319 250.306C307.35 250.871 306.093 255.21 305.566 257.27C304.291 262.256 303.002 267.079 302.99 272.194L300.061 272.074V272.073Z" fill="#52B788"/>
<path d="M298.081 272.956C300.007 269.643 300.998 266.065 302.059 262.387C302.497 260.868 303.325 257.615 304.853 257.969C306.653 258.383 305.495 262.699 304.832 264.213C305.496 263.485 305.845 263.124 306.553 262.428C308.015 260.741 313.877 249.854 315.338 250.876C316.936 251.997 314.185 256.152 312.888 257.781C315.108 256.174 324.958 247.252 326.418 249.28C327.547 250.843 317.768 255.995 317.768 255.995C317.768 255.995 322.841 254.684 325.549 254.532C329.92 254.287 329.811 257.64 325.8 257.488C322.166 257.351 318.048 258.195 314.505 259.35C316.017 258.837 321.364 258.641 322.624 260.621C323.885 262.6 321.882 262.325 319.778 262.04C315.523 261.464 310.961 262.028 308.03 264.652C308.965 264.184 314.891 262.119 316.25 264.002C317.441 265.649 314.597 265.971 313.218 266.166C307.696 266.952 302.824 269.901 300.021 273.917L298.081 272.956Z" fill="#52B788"/>
<path d="M304.418 274.465C305.037 264.811 309.416 255.044 316.451 248.418C318.203 246.77 321.888 243.496 318.928 241.769C315.516 239.797 308.957 249.024 308.047 250.727C309.979 243.376 315.862 238.052 322.235 235C325.387 233.489 328.391 232.068 325.034 229.825C321.677 227.583 314.407 233.021 312.735 235.347C316.717 229.951 321.745 224.554 326.898 221.353C332.59 217.803 329.994 211.867 324.155 216.454C320.482 219.296 314.512 226.388 314.512 226.388C314.512 226.388 323.901 208.125 321.065 206.446C317.423 204.288 310.964 229.23 309.186 234.106C309.657 230.04 310.103 220.195 306.945 219.77C304.09 219.386 304.789 243.885 304.126 248.214C303.706 250.103 303.507 251.051 303.191 252.957C302.875 249.695 300.999 241.091 298.144 242.087C295.741 242.926 297.228 249.366 297.853 252.424C299.37 259.823 300.9 266.988 300.906 274.579L304.418 274.465Z" fill="#52B788"/>
<path d="M304.418 274.465C305.037 264.811 309.416 255.044 316.451 248.418C318.203 246.77 321.888 243.496 318.928 241.769C315.516 239.797 308.957 249.024 308.047 250.727C309.979 243.376 315.862 238.052 322.235 235C325.387 233.489 328.391 232.068 325.034 229.825C321.677 227.583 314.407 233.021 312.735 235.347C316.717 229.951 321.745 224.554 326.898 221.353C332.59 217.803 329.994 211.867 324.155 216.454C320.482 219.296 314.512 226.388 314.512 226.388C314.512 226.388 323.901 208.125 321.065 206.446C317.423 204.288 310.964 229.23 309.186 234.106C309.657 230.04 310.103 220.195 306.945 219.77C304.09 219.386 304.789 243.885 304.126 248.214C303.706 250.103 303.507 251.051 303.191 252.957C302.875 249.695 300.999 241.091 298.144 242.087C295.741 242.926 297.228 249.366 297.853 252.424C299.37 259.823 300.9 266.988 300.906 274.579L304.418 274.465Z" fill="#52B788"/>
<path d="M286.699 274.578H317.311V268.876H286.699V274.578Z" fill="#263238"/>
<path d="M296.623 153.976C312.186 153.976 324.804 141.761 324.804 126.692C324.804 111.624 312.186 99.4088 296.623 99.4088C281.059 99.4088 268.442 111.624 268.442 126.692C268.442 141.761 281.059 153.976 296.623 153.976Z" fill="#52B788"/>
<path d="M325.315 139.798C325.264 139.798 325.211 139.788 325.16 139.765C324.972 139.682 324.89 139.468 324.975 139.285C328.945 130.85 328.125 119.692 322.98 112.152C322.867 111.985 322.914 111.76 323.087 111.651C323.258 111.541 323.491 111.586 323.604 111.754C328.883 119.49 329.726 130.936 325.655 139.586C325.592 139.72 325.456 139.798 325.315 139.798Z" fill="#52B788"/>
<path d="M313.425 136.221C313.348 136.364 313.264 136.508 313.172 136.648C316.307 138.802 313.348 141.932 312.433 142.437C311.739 142.831 310.987 143.129 310.202 143.32C306.501 144.251 303.214 142.474 301.454 141.603C298.923 140.346 298.821 135.522 297.302 133.082C295.315 129.89 291.855 121.945 294.383 115.771C295.598 112.866 296.792 111.699 296.792 111.699C298.26 110.186 300.581 109.857 302.658 110.411C304.735 110.964 306.501 112.311 308.068 113.817C310.896 116.483 313.002 119.737 314.22 123.321C315.336 126.713 314.251 127.893 313.576 130.101L313.593 130.169C314.307 132.146 314.395 134.447 313.425 136.221Z" fill="#263238"/>
<path d="M315.47 145.326C314.01 143.527 300.784 142.071 300.784 142.071L292.657 142.974C292.657 142.974 282.021 144.812 278.568 146.61C278.325 146.738 278.093 146.888 277.869 147.052C282.851 151.356 289.419 153.975 296.622 153.975C304.202 153.975 311.078 151.072 316.143 146.359C315.902 145.934 315.674 145.577 315.469 145.325L315.47 145.326Z" fill="#52B788"/>
<path opacity="0.4" d="M315.47 145.326C314.01 143.527 300.784 142.071 300.784 142.071L292.657 142.974C292.657 142.974 282.021 144.812 278.568 146.61C278.325 146.738 278.093 146.888 277.869 147.052C282.851 151.356 289.419 153.975 296.622 153.975C304.202 153.975 311.078 151.072 316.143 146.359C315.902 145.934 315.674 145.577 315.469 145.325L315.47 145.326Z" fill="white"/>
<path d="M303.46 137.721C302.502 139.831 302.51 141.867 303.82 143.802C303.82 143.802 308.752 148.65 305.326 148.85C301.899 149.049 295.493 145.936 294.104 143.232C294.104 143.232 295.969 140.303 295.453 136.489C294.937 132.675 294.366 131.168 294.366 131.168L303.461 137.721H303.46Z" fill="#B97964"/>
<path d="M291.017 122.799C291.459 129.301 291.496 132.052 294.847 135.453C299.893 140.559 307.883 138.806 309.451 132.342C310.814 126.524 309.898 116.887 303.428 114.166C296.957 111.445 290.581 116.289 291.018 122.799H291.017Z" fill="#B97964"/>
<path d="M293.466 122.863C294.853 123.468 294.909 129.594 291.658 129.474C288.407 129.353 288.914 120.882 293.466 122.863Z" fill="#263238"/>
<path d="M288.289 128.498C289.032 129.874 290.296 130.77 291.475 131.107C293.249 131.613 294.293 128.86 293.755 127.098C293.271 125.511 291.553 124.405 289.795 124.676C288.062 124.944 287.44 126.924 288.289 128.498Z" fill="#B97964"/>
<path opacity="0.2" d="M292.091 128.48C291.99 128.48 291.908 128.402 291.905 128.304C291.89 127.726 291.633 127.165 291.201 126.766C290.769 126.367 290.184 126.145 289.58 126.158C289.488 126.163 289.391 126.082 289.389 125.981C289.387 125.881 289.468 125.799 289.571 125.797C290.256 125.784 290.956 126.039 291.458 126.505C291.962 126.969 292.26 127.622 292.278 128.296C292.281 128.396 292.2 128.479 292.096 128.481H292.091V128.48Z" fill="black"/>
<path d="M304.088 115.012C303.46 113.176 301.307 111.675 297.46 111.024L297.275 110.992C293.609 110.406 289.66 109.435 288.283 113.382C284.672 123.682 278.637 122.54 280.077 125.59C280.523 126.378 281.402 126.843 282.328 126.779C282.56 126.769 282.787 126.715 282.997 126.62C282.74 126.867 282.437 127.124 282.165 127.394C280.671 128.889 279.234 130.638 278.708 132.706C278.587 133.046 278.531 133.406 278.544 133.766C278.602 135.382 280.002 136.646 281.672 136.59C281.538 136.739 280.018 138.405 279.783 138.824C277.194 143.443 279.233 148.521 285.91 146.406C285.91 146.406 290.416 147.99 292.394 143.642C292.394 143.642 295.616 143.394 296.652 140.554C296.687 140.489 296.717 140.422 296.743 140.353C297.727 138.285 297.708 135.901 296.691 133.849C296.106 132.69 295.466 131.565 294.882 130.405C294.484 129.712 294.239 128.955 294.121 128.178C294.242 127.929 294.36 127.676 294.489 127.435L294.647 127.163C295.549 125.476 296.905 124.056 298.571 123.052C303.021 120.628 305.014 117.491 304.088 115.012H304.088Z" fill="#263238"/>
<path d="M299.899 125.234C299.903 125.93 300.267 126.514 300.712 126.541C301.157 126.568 301.515 126.026 301.51 125.331C301.507 124.637 301.142 124.051 300.697 124.025C300.253 123.998 299.894 124.54 299.898 125.234H299.899Z" fill="#263238"/>
<path d="M306.578 125.481C306.583 126.155 306.947 126.722 307.39 126.749C307.834 126.776 308.19 126.251 308.184 125.577C308.179 124.904 307.815 124.337 307.372 124.31C306.928 124.283 306.572 124.808 306.578 125.481Z" fill="#263238"/>
<path d="M298.589 122.762C298.675 122.775 298.763 122.754 298.832 122.697C299.915 121.804 301.076 122.178 301.089 122.183C301.261 122.239 301.441 122.151 301.488 121.981C301.535 121.811 301.432 121.626 301.258 121.567C301.198 121.547 299.741 121.075 298.397 122.184C298.264 122.295 298.252 122.5 298.372 122.641C298.43 122.709 298.508 122.751 298.588 122.763L298.589 122.762Z" fill="#263238"/>
<path d="M308.963 122.281C309.033 122.261 309.091 122.214 309.124 122.144C309.192 121.998 309.124 121.806 308.974 121.717C307.462 120.813 306.287 121.407 306.238 121.434C306.098 121.507 306.058 121.691 306.146 121.847C306.235 122.002 306.421 122.068 306.56 121.997C306.605 121.973 307.524 121.526 308.726 122.245C308.804 122.292 308.889 122.303 308.962 122.282L308.963 122.281Z" fill="#263238"/>
<path d="M304.775 125.089C304.775 125.089 305.73 127.585 306.86 129.162C307.057 129.438 306.911 129.823 306.582 129.926C305.733 130.191 304.766 129.882 304.766 129.882L304.775 125.089Z" fill="#A24E3F"/>
<path d="M300.441 124.043L302.012 123.749C302.012 123.749 301.114 124.837 300.441 124.043Z" fill="#263238"/>
<path d="M307.211 124.319L308.781 124.025C308.781 124.025 307.883 125.114 307.211 124.319Z" fill="#263238"/>
<path d="M304.262 131.722C303.731 132.35 303.037 133.604 303.037 133.604C302.908 133.563 302.78 133.522 302.653 133.476C300.923 132.886 300.322 132.059 300.18 131.32C300.104 130.916 300.171 130.536 300.265 130.239C300.37 129.895 300.527 129.673 300.527 129.673C301.251 130.517 302.821 131.188 303.674 131.512C304.03 131.651 304.261 131.722 304.261 131.722L304.262 131.722Z" fill="#263238"/>
<path d="M303.675 131.511L303.299 132.057C301.671 131.497 300.602 130.892 300.266 130.239C300.371 129.895 300.528 129.673 300.528 129.673C301.252 130.517 302.822 131.188 303.675 131.512V131.511Z" fill="white"/>
<path d="M302.654 133.475C300.924 132.885 300.322 132.058 300.18 131.319C300.762 131.542 301.437 131.874 301.967 132.344C302.374 132.701 302.564 133.104 302.653 133.475H302.654Z" fill="#D7504D"/>
<path d="M259.156 208.117C275.369 201.415 282.895 183.26 275.967 167.566C269.038 151.872 250.278 144.582 234.065 151.284C217.852 157.986 210.326 176.141 217.255 191.835C224.183 207.529 242.943 214.819 259.156 208.117Z" fill="#52B788"/>
<path opacity="0.4" d="M259.156 208.117C275.369 201.415 282.895 183.26 275.967 167.566C269.038 151.872 250.278 144.582 234.065 151.284C217.852 157.986 210.326 176.141 217.255 191.835C224.183 207.529 242.943 214.819 259.156 208.117Z" fill="white"/>
<path d="M267.951 200.805C266.297 198.768 251.253 196.653 251.253 196.653L242.112 198.142C242.112 198.142 230.065 200.223 226.154 202.261C225.878 202.405 225.582 202.853 225.582 202.949C231.225 207.824 238.444 210.603 246.603 210.603C255.189 210.603 262.977 207.315 268.713 201.976C268.44 201.496 268.182 201.091 267.951 200.806V200.805Z" fill="#263238"/>
<path d="M216.036 198.313C215.915 198.313 215.796 198.255 215.724 198.15C209.754 189.399 208.8 176.455 213.405 166.671C213.491 166.489 213.712 166.411 213.899 166.492C214.088 166.574 214.17 166.789 214.085 166.971C209.581 176.54 210.511 189.197 216.347 197.751C216.46 197.917 216.413 198.142 216.241 198.252C216.177 198.293 216.105 198.312 216.035 198.312L216.036 198.313Z" fill="#52B788"/>
<path d="M214.957 164.595C214.915 164.595 214.872 164.587 214.83 164.573C214.643 164.503 214.541 164.312 214.605 164.127C214.674 163.927 215.696 162.247 216.3 161.263C216.404 161.091 216.634 161.035 216.812 161.137C216.989 161.239 217.048 161.46 216.942 161.632C216.206 162.834 215.383 164.201 215.309 164.369C215.248 164.508 215.107 164.595 214.957 164.595Z" fill="#52B788"/>
<path d="M270.034 197.888C270.876 191.326 264.298 188.185 264.594 178.708C265.1 162.447 249.221 161.655 243.025 162.263C236.83 162.872 236.761 169.402 236.761 169.402C236.761 169.402 227.659 172.692 231.948 185.118C235.844 196.405 227.254 191.304 230.545 200.128C243.379 196.907 252.219 194.084 262.979 197.151L263.168 192.36L265.068 197.951L270.035 197.887L270.034 197.888Z" fill="#263238"/>
<path d="M254.307 205.291C256.075 204.645 254.887 199.603 253.284 198.581C251.477 197.428 250.561 196.386 250.702 194.601C250.77 193.589 251.047 192.528 251.39 191.49L249.338 190.527L241.769 184.347C242.947 188.436 243.491 195.778 240.063 198.553C240.063 198.553 242.651 200.225 246.419 202.84C246.419 202.84 252.081 206.104 254.306 205.291H254.307Z" fill="#FFAF6B"/>
<path opacity="0.2" d="M250.681 194.992C248.671 194.061 246.401 192.34 246.45 190.144C246.477 189.218 246.601 188.334 246.776 187.758L251.113 192.391C250.869 193.22 250.802 193.759 250.681 194.992Z" fill="black"/>
<path d="M239.717 176.819C241.009 183.667 241.406 186.583 245.422 189.884C251.462 194.85 259.808 192.278 260.64 185.308C261.39 179.033 259.15 168.889 251.88 166.595C244.718 164.335 238.424 169.971 239.717 176.819Z" fill="#FFAF6B"/>
<path d="M249.162 178.264C249.264 178.992 249.729 179.556 250.199 179.525C250.669 179.494 250.967 178.878 250.864 178.151C250.761 177.423 250.297 176.859 249.827 176.89C249.356 176.921 249.059 177.536 249.162 178.264Z" fill="#263238"/>
<path d="M256.193 177.633C256.294 178.338 256.756 178.884 257.225 178.853C257.694 178.822 257.991 178.225 257.89 177.52C257.789 176.816 257.327 176.27 256.858 176.301C256.39 176.332 256.092 176.929 256.193 177.633Z" fill="#263238"/>
<path d="M247.438 175.849C247.53 175.851 247.62 175.817 247.685 175.749C248.692 174.668 249.961 174.906 249.976 174.91C250.164 174.945 250.34 174.829 250.365 174.644C250.39 174.46 250.256 174.28 250.066 174.241C249.999 174.228 248.407 173.927 247.156 175.269C247.032 175.403 247.049 175.618 247.194 175.751C247.265 175.815 247.352 175.848 247.438 175.85V175.849Z" fill="#263238"/>
<path d="M258.238 173.963C258.307 173.934 258.362 173.877 258.387 173.799C258.437 173.636 258.34 173.445 258.169 173.37C256.457 172.625 255.311 173.404 255.263 173.438C255.127 173.533 255.11 173.732 255.226 173.883C255.341 174.034 255.544 174.079 255.68 173.985C255.724 173.954 256.623 173.364 257.985 173.958C258.073 173.996 258.164 173.995 258.237 173.964L258.238 173.963Z" fill="#263238"/>
<path d="M254.248 177.463C254.248 177.463 255.603 179.951 257.011 181.453C257.257 181.715 257.159 182.138 256.828 182.29C255.977 182.68 254.919 182.486 254.919 182.486L254.248 177.463Z" fill="#E97F3F"/>
<path d="M249.561 176.945L251.164 176.428C251.164 176.428 250.378 177.688 249.561 176.945Z" fill="#263238"/>
<path d="M256.691 176.332L258.294 175.815C258.294 175.815 257.509 177.075 256.691 176.332Z" fill="#263238"/>
<path d="M242.413 178.989C242.413 178.989 245.595 173.308 245.004 168.983C245.004 168.983 251.881 166.594 258.169 173.37C259.17 174.449 259.883 176.332 260.838 177.926C260.838 177.926 260.965 164.673 248.825 164.641C236.704 164.609 235.856 181.177 242.231 186.174C242.231 186.174 240.445 182.54 242.413 178.988V178.989Z" fill="#263238"/>
<path d="M238.08 182.633C239.053 183.976 240.504 184.746 241.788 184.942C243.718 185.237 244.42 182.214 243.607 180.438C242.874 178.841 240.918 177.91 239.114 178.429C237.337 178.941 236.967 181.098 238.08 182.633Z" fill="#FFAF6B"/>
<path opacity="0.2" d="M242.035 182.1C241.944 182.1 241.864 182.036 241.85 181.947C241.752 181.34 241.402 180.785 240.89 180.423C240.377 180.06 239.725 179.908 239.099 180C239 180.017 238.901 179.948 238.886 179.849C238.87 179.75 238.939 179.658 239.042 179.643C239.764 179.537 240.519 179.713 241.111 180.131C241.703 180.549 242.107 181.191 242.22 181.891C242.236 181.99 242.166 182.083 242.065 182.098C242.054 182.1 242.045 182.1 242.036 182.1L242.035 182.1Z" fill="black"/>
<path d="M254.307 183.991C253.786 184.67 253.127 186.005 253.127 186.005C252.991 185.969 252.855 185.933 252.722 185.89C250.893 185.357 250.226 184.524 250.042 183.763C249.944 183.346 249.994 182.948 250.078 182.634C250.17 182.272 250.322 182.034 250.322 182.034C251.117 182.877 252.782 183.502 253.686 183.799C254.064 183.927 254.307 183.991 254.307 183.991Z" fill="#263238"/>
<path d="M253.686 183.8L253.322 184.385C251.601 183.879 250.459 183.298 250.078 182.636C250.17 182.273 250.322 182.035 250.322 182.035C251.117 182.879 252.782 183.502 253.686 183.8Z" fill="white"/>
<path d="M252.721 185.891C250.893 185.358 250.226 184.525 250.042 183.764C250.658 183.969 251.378 184.283 251.952 184.746C252.393 185.099 252.611 185.508 252.721 185.891Z" fill="#D7504D"/>
<path d="M270.843 95.7215C284.427 82.5776 284.427 61.2672 270.843 48.1234C257.259 34.9795 235.236 34.9795 221.652 48.1234C208.068 61.2672 208.068 82.5776 221.652 95.7215C235.236 108.865 257.259 108.865 270.843 95.7215Z" fill="#52B788"/>
<path opacity="0.7" d="M270.843 95.7215C284.427 82.5776 284.427 61.2672 270.843 48.1234C257.259 34.9795 235.236 34.9795 221.652 48.1234C208.068 61.2672 208.068 82.5776 221.652 95.7215C235.236 108.865 257.259 108.865 270.843 95.7215Z" fill="white"/>
<path d="M269.491 94.9149C267.689 92.6951 252.468 91.0795 252.468 91.0795L241.341 92.0128C241.341 92.0128 228.217 94.2804 223.957 96.5002C223.656 96.6572 223.37 96.8431 223.094 97.045C229.241 102.356 237.346 105.588 246.233 105.588C255.587 105.588 264.071 102.006 270.321 96.1905C270.024 95.6667 269.743 95.2253 269.491 94.9149Z" fill="#52B788"/>
<path d="M251.462 47.2335C240.625 43.6665 236.734 52.262 236.734 52.262C235.261 52.6556 234.364 53.2265 233.845 53.8683C233.005 54.2351 232.12 54.8841 231.356 56.0251C229.087 59.4178 229.981 63.7684 231.323 66.0178C232.268 67.6023 236.665 64.5259 237.79 59.9163C243.177 61.6846 253.61 65.0447 255.465 65.1698C257.986 65.3399 261.947 62.3763 262.426 58.407C263.147 52.4364 258.292 49.4822 251.462 47.2335Z" fill="#263238"/>
<path d="M241.043 91.9427C241.043 91.9427 242.295 86.7832 240 77.4402C240 77.4301 240.512 77.2391 240.513 77.229C240.198 75.9223 239.853 74.7125 239.524 73.6627C239.516 73.6323 239.518 73.6222 239.518 73.6222L252.142 82.0245C251.689 84.9563 252.494 90.7004 253.024 93.1351C253.024 93.1351 254.449 97.5667 248.456 97.4748C244.079 97.4075 241.044 91.942 241.044 91.942L241.043 91.9427Z" fill="#FFB2A8"/>
<g opacity="0.2">
<path d="M245.357 84.1452C246.921 85.8787 249.641 86.8555 252.134 86.9069C252.098 86.692 252.105 86.3693 252.079 86.1551C252.036 85.8187 252.04 85.3042 252.02 84.9512C252 84.517 251.993 84.0453 252.016 83.596C252.038 83.418 252.112 83.4433 252.133 83.2653L252.177 82.8985L244.624 80.4168C244.011 80.8495 244.095 82.7372 245.357 84.1452Z" fill="black"/>
</g>
<path d="M235.134 66.2023C233.325 58.352 240.368 51.1239 248.778 53.0123C257.313 54.929 260.37 66.5243 259.785 73.9187C259.136 82.1344 249.627 87.3265 242.396 82.1663C237.59 78.736 236.943 74.0526 235.134 66.2023Z" fill="#FFB2A8"/>
<path d="M241.251 53.5752C238.236 54.1671 232.046 59.977 232.046 59.977C232.046 59.977 232.439 62.2308 233.232 63.5737C232.893 63.8516 232.578 64.1496 232.299 64.4731C231.976 64.8515 231.694 65.2603 231.47 65.7067C231.417 65.808 231.369 65.9122 231.322 66.0178C231.431 66.3072 231.571 66.6053 231.749 66.9114C232.627 68.4293 235.414 71.7829 237.841 74.6039C237.637 74.2089 237.454 73.782 237.282 73.3124C236.71 71.7467 236.001 69.5689 235.265 66.9425C235.92 66.962 236.393 67.1357 236.822 67.3556C239.953 68.9618 241.094 70.4668 242.411 68.9872C243.212 68.0871 242.206 65.2183 241.546 62.7778C241.38 62.1375 241.05 60.6948 241.03 59.281C241.003 57.3875 242.963 55.8341 242.963 55.8341C242.963 55.8341 243.077 55.6995 243.194 55.4977C245.875 57.1683 250.602 59.2419 255.258 57.0236C262.211 53.7105 247.226 47.1525 241.249 53.5745L241.251 53.5752Z" fill="#263238"/>
<path d="M246.872 67.9381C246.947 68.7564 247.456 69.3772 248.009 69.3251C248.562 69.2723 248.95 68.5661 248.875 67.7478C248.8 66.9295 248.291 66.3087 247.739 66.3608C247.186 66.4136 246.798 67.1191 246.873 67.9381H246.872Z" fill="#263238"/>
<path d="M255.067 67.4027C255.142 68.221 255.65 68.8418 256.203 68.7897C256.756 68.7369 257.144 68.0314 257.069 67.2124C256.994 66.3941 256.486 65.7733 255.933 65.8261C255.38 65.8789 254.992 66.5844 255.067 67.4034V67.4027Z" fill="#263238"/>
<path d="M252.627 66.4209C252.627 66.4209 255.674 70.2585 256.683 71.8408C255.6 72.9703 253.53 72.6693 253.53 72.6693L252.627 66.4209Z" fill="#E8675B"/>
<path d="M244.7 63.5123C244.833 63.5521 244.983 63.5231 245.093 63.424C246.364 62.2765 247.696 62.5369 247.835 62.5666C248.048 62.6158 248.264 62.4892 248.317 62.2837C248.371 62.0782 248.24 61.8713 248.027 61.8214C247.952 61.804 246.164 61.409 244.551 62.8669C244.39 63.0123 244.381 63.2554 244.53 63.4088C244.579 63.4587 244.637 63.4935 244.7 63.5123Z" fill="#263238"/>
<path d="M232.871 71.9095C233.75 73.986 235.541 75.4649 237.314 76.1363C239.982 77.1471 240.688 74.3601 240.207 71.7684C239.775 69.4357 238.805 66.6328 236.002 66.7297C233.241 66.826 231.866 69.5349 232.871 71.9088V71.9095Z" fill="#FFB2A8"/>
<path opacity="0.2" d="M238.755 71.78C238.668 71.78 238.589 71.7207 238.572 71.6353C238.43 70.9588 238.105 70.3264 237.633 69.8076C237.327 69.4712 236.827 69.0494 236.188 68.9539C235.614 68.8678 235.023 69.1145 234.781 69.5385C234.731 69.626 234.617 69.6571 234.527 69.6094C234.437 69.5609 234.404 69.4509 234.454 69.3634C234.774 68.8027 235.51 68.4872 236.244 68.5964C236.993 68.7086 237.565 69.1869 237.912 69.5689C238.427 70.1354 238.781 70.8249 238.936 71.5637C238.956 71.6613 238.891 71.7568 238.791 71.7771C238.778 71.7793 238.766 71.7807 238.753 71.7807L238.755 71.78Z" fill="black"/>
<path d="M258.767 62.8763C258.839 62.8546 258.906 62.8126 258.957 62.7518C259.096 62.5869 259.073 62.3438 258.905 62.2092C257.215 60.8591 255.475 61.3938 255.393 61.4082C255.185 61.4734 255.068 61.6904 255.133 61.893C255.198 62.0949 255.418 62.207 255.626 62.1441C255.697 62.1188 257.043 61.7237 258.4 62.8076C258.506 62.8922 258.644 62.9139 258.767 62.877L258.767 62.8763Z" fill="#263238"/>
<path d="M247.459 74.3826C247.459 74.3826 249.501 75.6112 253.079 75.6148C253.079 75.6148 252.43 77.9887 250.136 77.7926C247.362 77.5553 247.459 74.3826 247.459 74.3826Z" fill="white"/>
<path d="M250.044 73.3429C251.357 73.3813 252.641 73.8183 253.616 74.6692C253.993 74.9977 254.312 75.3753 254.443 75.7784C254.861 77.0677 250.136 76.1654 248.198 75.4463C246.26 74.7271 246.708 73.9927 247.801 73.5593C248.325 73.3516 249.237 73.3191 250.044 73.3429Z" fill="#263238"/>
<path opacity="0.3" d="M241.201 61.1159C241.201 61.1159 237.755 63.2605 234.308 62.644C230.86 62.0276 229.966 61.291 229.966 61.291L230.216 63.1078C230.216 63.1078 233.125 64.7661 236.686 64.578C240.247 64.3899 241.755 63.5289 241.755 63.5289L241.2 61.1159H241.201Z" fill="white"/>
<path d="M212.936 92.1677C212.815 92.1677 212.696 92.1106 212.624 92.0049C206.126 82.4804 205.088 68.3911 210.099 57.7429C210.185 57.5612 210.406 57.4809 210.594 57.5634C210.782 57.6466 210.864 57.8608 210.779 58.0431C205.869 68.4764 206.883 82.2785 213.248 91.6063C213.361 91.7727 213.314 91.9977 213.142 92.1069C213.078 92.1475 213.006 92.1677 212.936 92.1677Z" fill="#52B788"/>
<path d="M211.76 55.4362C211.718 55.4362 211.676 55.429 211.634 55.4138C211.446 55.3458 211.344 55.1526 211.408 54.9681C211.482 54.7539 212.594 52.9248 213.251 51.854C213.356 51.6825 213.585 51.6261 213.763 51.7274C213.94 51.8294 213.999 52.0515 213.893 52.2237C213.088 53.5369 212.191 55.0296 212.113 55.2083C212.053 55.3479 211.91 55.4362 211.76 55.4362Z" fill="#52B788"/>
<path d="M60.6672 65.7039H55.9837V93.5728H60.6672V65.7039Z" fill="#52B788"/>
<path d="M196.376 65.7039H191.692V93.5728H196.376V65.7039Z" fill="#52B788"/>
<path opacity="0.2" d="M196.376 65.7039H191.692V93.5728H196.376V65.7039Z" fill="black"/>
<path d="M196.008 97.7758H191.324V126.247H196.008V97.7758Z" fill="#52B788"/>
<path opacity="0.2" d="M196.008 97.7758H191.324V126.247H196.008V97.7758Z" fill="black"/>
<path d="M80.6904 31.3478H171.892C183.528 31.3478 192.975 40.4939 192.975 51.7593V276.011C192.975 284.594 185.777 291.563 176.911 291.563H73.2933C65.7401 291.563 59.6075 285.626 59.6075 278.313V51.7593C59.6075 40.4939 69.0545 31.3478 80.6904 31.3478Z" fill="#52B788"/>
<path d="M80.8988 36.6035H171.684C180.462 36.6035 187.589 43.5031 187.589 52.0017V276.742C187.589 282.008 183.172 286.284 177.733 286.284H74.8499C69.4101 286.284 64.9942 282.008 64.9942 276.742V52.0024C64.9942 43.5038 72.1207 36.6035 80.8988 36.6035Z" fill="white"/>
<path d="M107.184 35.2555C107.184 35.4053 110.368 39.7913 111.943 42.0603C112.522 42.8945 113.493 43.3916 114.531 43.3916H145.526C146.646 43.3916 147.676 42.8164 148.233 41.8765C149.639 39.5026 152.213 35.1824 152.28 35.2555C152.372 35.3561 107.184 35.2555 107.184 35.2555Z" fill="#52B788"/>
<path d="M156.864 86.9547C165.18 86.9547 171.921 80.4284 171.921 72.3777C171.921 64.3271 165.18 57.8007 156.864 57.8007C148.549 57.8007 141.808 64.3271 141.808 72.3777C141.808 80.4284 148.549 86.9547 156.864 86.9547Z" fill="#E0E0E0"/>
<path d="M148.171 82.4898C148.46 81.8879 151.178 77.2768 157.241 77.2761C163.967 77.2761 166.403 81.9031 166.403 81.9031C166.403 81.9031 162.606 85.2053 157.469 85.4599C152.489 85.7074 148.171 82.4891 148.171 82.4891V82.4898Z" fill="#F5F5F5"/>
<path d="M157.132 75.8044C160.432 75.8044 163.108 73.2139 163.108 70.0183C163.108 66.8228 160.432 64.2323 157.132 64.2323C153.831 64.2323 151.155 66.8228 151.155 70.0183C151.155 73.2139 153.831 75.8044 157.132 75.8044Z" fill="#F5F5F5"/>
<path d="M140.23 286.396C138.87 278.046 136.777 266.325 133.587 253.837C129.544 238.083 124.49 221.057 120.35 207.719C115.969 193.666 112.648 183.731 112.648 183.731L148.365 181.556C148.365 181.556 162.985 251.389 166.416 278.35C166.809 280.989 166.78 283.633 166.416 286.283L140.23 286.396Z" fill="#52B788"/>
<path opacity="0.2" d="M140.23 286.396C138.87 278.046 136.777 266.325 133.587 253.837C129.544 238.083 124.49 221.057 120.35 207.719C115.969 193.666 112.648 183.731 112.648 183.731L148.365 181.556C148.365 181.556 162.985 251.389 166.416 278.35C166.809 280.989 166.78 283.633 166.416 286.283L140.23 286.396Z" fill="black"/>
<path opacity="0.2" d="M124.383 202.242L121.042 209.216C124.774 222.554 129.099 237.204 133.345 252.894C134.929 237.433 132.411 211.422 124.384 202.242H124.383Z" fill="black"/>
<path d="M120.939 284.6C125.236 258.805 129.098 182.723 129.098 182.723L94.0318 184.876C94.0318 184.876 97.6301 250.382 94.525 281.89L94.0318 286.284H120.703L120.939 284.6Z" fill="#52B788"/>
<path opacity="0.2" d="M120.939 284.6C125.236 258.805 129.098 182.723 129.098 182.723L94.0318 184.876C94.0318 184.876 97.6301 250.382 94.525 281.89L94.0318 286.284H120.703L120.939 284.6Z" fill="black"/>
<path opacity="0.2" d="M128.569 191.756C128.569 192.592 127.869 193.27 127.006 193.27C126.143 193.27 125.442 192.592 125.442 191.756C125.442 190.92 126.143 190.242 127.006 190.242C127.869 190.242 128.569 190.92 128.569 191.756Z" fill="black"/>
<path opacity="0.2" d="M96.3247 203.646C96.1191 203.646 95.9517 203.484 95.951 203.285C95.951 203.086 96.1169 202.923 96.3232 202.922C99.7355 202.908 103.057 201.543 105.436 199.174C107.815 196.805 109.132 193.553 109.05 190.25C109.046 190.051 109.209 189.885 109.415 189.88C109.63 189.869 109.792 190.033 109.797 190.233C109.884 193.729 108.49 197.172 105.972 199.679C103.454 202.186 99.9387 203.631 96.3262 203.645H96.3247V203.646Z" fill="black"/>
<path opacity="0.2" d="M127.005 204.849C126.824 204.849 126.664 204.721 126.636 204.542C126.605 204.345 126.744 204.16 126.948 204.13C127.947 203.981 129.56 203.719 130.1 203.583C130.318 202.414 130.163 194.905 130.007 190.254C130 190.054 130.163 189.886 130.368 189.88C130.543 189.867 130.747 190.03 130.754 190.229C131.213 203.943 130.812 204.099 130.519 204.211C130.052 204.392 127.557 204.77 127.062 204.844C127.043 204.847 127.024 204.848 127.004 204.848L127.005 204.849Z" fill="black"/>
<path opacity="0.2" d="M142.718 190.916C142.641 191.364 142.783 191.886 142.866 192.324C143.043 193.258 143.303 194.18 143.635 195.073C144.464 197.299 145.792 199.504 147.913 200.785C149.278 201.608 150.868 201.924 152.463 201.824C152.821 201.801 152.824 201.259 152.463 201.281C149.761 201.452 147.436 200.265 145.879 198.15C144.659 196.495 143.905 194.524 143.48 192.542C143.407 192.202 143.342 191.859 143.299 191.513C143.286 191.406 143.277 191.3 143.268 191.193C143.265 191.149 143.279 190.946 143.26 191.059C143.319 190.718 142.779 190.571 142.719 190.915L142.718 190.916Z" fill="black"/>
<path d="M148.637 125.211L156.293 138.417L173.189 117.867L181.195 120.757C181.195 120.757 160.375 155.94 155.138 156.536C149.901 157.132 136.828 133.816 136.828 133.816L148.637 125.211Z" fill="#8E4B4C"/>
<path d="M141.15 107.615C146.651 115.503 155.733 130.484 155.733 130.484L134.88 142.031C134.88 142.031 121.41 120.536 122.083 112.071C122.82 102.901 135.487 102.416 141.15 107.615Z" fill="#263238"/>
<path d="M97.1099 105.422C98.4005 105.222 99.724 105.044 101.037 104.887C107.942 104.026 114.893 103.549 121.855 103.458C122.716 103.466 123.562 103.497 124.393 103.553C128.324 103.787 132.237 104.254 136.109 104.95C136.109 104.95 144.013 140.137 150.731 186.948C128.85 190.202 107.283 190.99 90.1814 188.112C89.7472 184.509 93.0855 170.593 92.3263 156.624C92.0012 150.659 91.4803 144.084 90.6119 137.205C89.4206 127.331 86.8207 117.452 84.1266 107.86C84.1266 107.86 90.5469 106.421 97.1099 105.424V105.422Z" fill="#263238"/>
<path opacity="0.2" d="M96.5727 143.041L97.6317 142.875L94.6827 127.139L103.125 153.75L98.5419 155.242L96.5727 143.041Z" fill="black"/>
<path d="M164.804 167.039C150.155 167.039 137.032 157.424 133.917 143.354C132.166 135.445 133.798 127.341 138.513 120.534C143.182 113.795 150.325 109.134 158.626 107.411L195.393 99.7799L198.213 112.514L161.446 120.145C156.576 121.156 152.399 123.87 149.685 127.788C147.018 131.638 146.088 136.196 147.069 140.623C149.111 149.845 158.886 155.667 168.853 153.596L205.62 145.965L208.439 158.699L171.672 166.331C169.368 166.809 167.066 167.039 164.802 167.039H164.804Z" fill="#52B788"/>
<path opacity="0.7" d="M205.482 144.998L184.453 149.362L187.492 163.085L208.521 158.721L205.482 144.998Z" fill="white"/>
<g opacity="0.3">
<path d="M208.448 158.7L171.681 166.331C153.885 170.025 136.379 159.362 132.659 142.562C128.939 125.761 140.391 109.087 158.188 105.393L194.955 97.7621L198.221 112.516L161.454 120.147C152.06 122.097 145.979 130.733 147.897 139.398C149.816 148.064 159.02 153.528 168.414 151.578L205.181 143.947L208.448 158.701L208.448 158.7Z" fill="black"/>
</g>
<path d="M163.171 159.668C148.523 159.668 135.4 150.052 132.284 135.982C128.688 119.738 139.772 103.615 156.994 100.04L193.76 92.4092L196.58 105.144L159.813 112.775C149.844 114.844 143.395 124.031 145.436 133.253C147.478 142.475 157.25 148.297 167.22 146.226L203.987 138.595L206.807 151.329L170.04 158.96C167.735 159.439 165.433 159.669 163.17 159.669L163.171 159.668Z" fill="#52B788"/>
<path opacity="0.7" d="M203.978 138.552L182.95 142.917L185.779 155.693L206.807 151.329L203.978 138.552Z" fill="white"/>
<path opacity="0.7" d="M193.751 92.408L172.723 96.7725L177.177 116.884L198.205 112.52L193.751 92.408Z" fill="white"/>
<path d="M174.089 116.452C174.089 116.452 175.086 109.528 176.729 108.44C178.371 107.351 178.699 110.083 178.699 110.083C178.699 110.083 178.529 107.056 179.846 106.812C181.429 106.519 181.759 109.383 181.759 109.383C181.759 109.383 181.724 106.905 182.911 106.764C184.143 106.618 184.753 109.825 184.753 109.825C184.753 109.825 185.07 108.076 185.952 108.43C186.835 108.784 188.267 115.564 187.293 117.786C186.318 120.008 177.261 121.523 175.22 121.398C174.634 121.362 173.647 121.131 172.405 118.815C172.145 118.33 172.309 117.723 172.786 117.431L174.055 116.658L174.088 116.452H174.089Z" fill="#8E4B4C"/>
<path opacity="0.2" d="M178.849 110.066C178.849 110.07 178.85 110.074 178.85 110.079L178.886 115.37C178.886 115.441 178.82 115.501 178.737 115.503C178.654 115.505 178.584 115.447 178.585 115.379L178.548 110.087C178.548 110.016 178.615 109.956 178.698 109.954C178.776 109.952 178.841 110.001 178.849 110.066Z" fill="black"/>
<path opacity="0.2" d="M181.927 109.514V109.518L182.38 114.598C182.386 114.669 182.324 114.732 182.242 114.739C182.158 114.746 182.101 114.704 182.08 114.625L181.627 109.545C181.621 109.474 181.683 109.411 181.765 109.403C181.846 109.396 181.919 109.446 181.927 109.514Z" fill="black"/>
<path opacity="0.2" d="M184.925 109.98L185.373 113.746C185.381 113.817 185.321 113.881 185.238 113.89C185.156 113.899 185.082 113.849 185.073 113.779L184.625 110.014C184.617 109.943 184.677 109.878 184.76 109.87C184.842 109.86 184.916 109.91 184.925 109.98Z" fill="black"/>
<path d="M100.536 104.955C104.871 100.017 102.71 88.5413 100.763 82.421L117.099 92.2038C116.871 92.9657 116.698 93.7421 116.581 94.5271C116.318 95.9373 116.435 97.3901 116.92 98.7438C117.37 99.853 119.513 103.458 119.513 103.458C119.513 103.458 123.322 110.251 114.205 111.314C105.173 111.968 100.536 104.955 100.536 104.955Z" fill="#8E4B4C"/>
<path opacity="0.2" d="M104.393 88.3895C104.755 95.8303 112.91 98.1875 116.928 98.7555C116.443 97.401 116.327 95.9489 116.589 94.5388L104.393 88.3895Z" fill="black"/>
<path d="M115.01 59.0301C122.495 57.528 118.59 63.3785 126.834 64.4283C127.051 69.2803 121.356 74.7524 119.186 71.7801C116.8 68.5134 108.783 60.2167 115.009 59.0301H115.01Z" fill="#263238"/>
<path d="M97.3961 77.3469C100.606 85.7037 102.237 90.4789 108.172 93.4961C117.099 98.0341 126.855 91.0918 126.365 81.9449C125.925 73.7119 120.75 61.4292 110.832 60.668C101.06 59.9185 94.1856 68.9901 97.3961 77.3469Z" fill="#8E4B4C"/>
<path d="M109.916 75.8341C110.187 76.7052 110.898 77.2659 111.504 77.0865C112.109 76.9071 112.38 76.0547 112.108 75.1829C111.837 74.3118 111.126 73.751 110.52 73.9305C109.915 74.1099 109.645 74.9622 109.916 75.8341Z" fill="#263238"/>
<path d="M119.14 73.8588C119.412 74.7307 120.122 75.2914 120.728 75.112C121.333 74.9325 121.604 74.0802 121.332 73.2084C121.061 72.3372 120.35 71.7758 119.745 71.9559C119.14 72.1354 118.869 72.987 119.14 73.8588Z" fill="#263238"/>
<path d="M117.169 74.0136C117.169 74.0136 121.454 77.5025 122.944 78.9959C121.995 80.4617 119.614 80.5941 119.614 80.5941L117.169 74.0144V74.0136Z" fill="#703131"/>
<path d="M107.585 72.6288C107.742 72.6426 107.904 72.5782 108.003 72.4465C109.185 70.8837 110.85 70.9083 110.867 70.9083C111.117 70.9141 111.329 70.7288 111.341 70.4944C111.353 70.2593 111.16 70.0639 110.912 70.0567C110.823 70.0538 108.737 70.0227 107.271 71.9625C107.124 72.1557 107.17 72.4212 107.371 72.555C107.437 72.5985 107.51 72.6223 107.585 72.6288Z" fill="#263238"/>
<path d="M123.145 68.8193C123.22 68.7795 123.285 68.7195 123.329 68.6421C123.446 68.4322 123.364 68.1732 123.145 68.0647C120.948 66.975 119.128 67.9409 119.04 67.9742C118.823 68.0914 118.742 68.3526 118.862 68.5581C118.981 68.7629 119.252 68.8352 119.469 68.7216C119.543 68.6782 120.956 67.9511 122.719 68.8258C122.858 68.8946 123.017 68.8866 123.145 68.82L123.145 68.8193Z" fill="#263238"/>
<path d="M119.766 83.6026C119.158 84.6821 118.632 85.8021 118.191 86.9554C117.972 86.9142 117.748 86.878 117.532 86.8266C114.556 86.2312 113.374 85.0077 112.981 83.8226C112.799 83.2401 112.761 82.6237 112.87 82.0238C112.923 81.6845 113.025 81.3539 113.172 81.042C114.556 82.2713 117.279 83.0332 118.756 83.3797C119.399 83.5006 119.765 83.6026 119.765 83.6026H119.766Z" fill="#263238"/>
<path d="M118.762 83.3797L118.269 84.3572C115.474 83.7914 113.584 83.0375 112.877 82.0245C112.93 81.6852 113.031 81.3545 113.178 81.0427C114.571 82.2843 117.285 83.0338 118.762 83.3797Z" fill="white"/>
<path d="M117.545 86.8896C114.569 86.2941 113.387 85.0706 112.994 83.8855C114.12 84.1315 115.193 84.5685 116.162 85.177C116.796 85.5945 117.28 86.1936 117.545 86.8896Z" fill="#D7504D"/>
<path d="M123.945 52.3048C117.87 51.7376 115.819 52.3793 110.811 54.3083C110.811 54.3083 112.064 51.8193 111.554 48.91C99.9789 58.5619 94.9457 54.0355 89.3265 59.5596C85.7356 63.0883 89.257 67.5474 89.257 67.5474C89.257 67.5474 79.9214 73.416 93.9951 83.5751C94.4412 84.6915 94.56 85.7681 94.1034 86.4714C93.2589 87.7701 91.709 88.4401 90.2494 89.0377C92.6364 89.6947 95.255 89.5305 97.5344 88.5797C97.1159 90.0102 96.3192 91.3349 95.2423 92.3942C98.405 92.5932 101.627 91.1063 103.459 88.6029L101.131 82.455C101.671 82.3993 102.247 82.3986 102.877 82.497C103.299 80.4226 103.42 78.302 103.235 76.1951C102.923 74.5476 102.388 72.9479 101.64 71.4371C101.64 71.4371 106.836 68.4649 106.956 64.8834C106.956 64.8834 116.242 67.5301 121.2 63.4862C126.158 59.4424 121.409 54.0883 123.946 52.3026L123.945 52.3048Z" fill="#263238"/>
<path d="M96.0293 85.4715C97.4365 87.4569 99.6942 88.6218 101.753 88.9452C104.85 89.4321 104.993 86.3643 103.9 83.7546C102.917 81.406 101.251 78.679 98.2534 79.3801C95.3007 80.0718 94.4203 83.2011 96.0293 85.4708V85.4715Z" fill="#8E4B4C"/>
<path opacity="0.2" d="M102.297 84.0692C102.225 84.0692 102.157 84.0287 102.126 83.96C101.822 83.2806 101.332 82.6873 100.706 82.2438C100.3 81.9551 99.6705 81.6201 98.9478 81.6555C98.3036 81.6896 97.7125 82.0781 97.5436 82.5802C97.5115 82.675 97.4061 82.7264 97.3082 82.696C97.2103 82.6649 97.1565 82.5629 97.1886 82.4681C97.4076 81.8198 98.1228 81.3365 98.9284 81.2945C99.7579 81.2467 100.472 81.6288 100.927 81.9522C101.606 82.4333 102.14 83.078 102.469 83.8167C102.51 83.9079 102.467 84.0143 102.372 84.0548C102.348 84.0649 102.323 84.07 102.298 84.07L102.297 84.0692Z" fill="black"/>
<path d="M77.7506 135.924C77.7506 135.924 85.7686 166.322 91.1344 169.614C96.5003 172.906 134.88 157.07 134.88 157.07L130.276 149.848L99.1181 154.328C98.1205 153.276 94.2433 129.631 94.2433 129.631L77.7498 135.925L77.7506 135.924Z" fill="#8E4B4C"/>
<path d="M93.6036 120.463C95.2455 131.327 97.6317 142.875 97.6317 142.875L76.3971 146.207C76.3971 146.207 73.6686 111.886 84.3375 107.858C87.9971 107.858 91.8167 108.627 93.6036 120.463Z" fill="#263238"/>
<path d="M143.921 148.322L144.487 147.261C145.142 145.493 143.424 144.298 143.424 144.298C143.519 142.794 142.065 141.172 141.477 140.79C140.889 140.409 134.71 145.143 134.71 145.143L133.231 141.454C132.985 141.541 130.519 144.197 129.421 146.268L126.13 151.311C127.047 155.462 129.159 156.644 131.479 157.598C131.87 157.759 136.816 156.703 139.191 156.078C141.362 155.506 144.684 153.858 145.419 151.067C146.154 148.275 143.922 148.322 143.922 148.322H143.921Z" fill="#8E4B4C"/>
<path opacity="0.2" d="M99.1181 154.326L96.3283 161.15L101.681 153.958L99.1181 154.326Z" fill="black"/>
<path d="M342.308 64.9073C342.061 64.2199 341.767 63.5485 341.427 62.8995C336.539 53.16 324.422 49.101 314.362 53.8329C304.302 58.5655 300.11 70.2968 304.997 80.037C309.885 89.7765 322.002 93.8355 332.062 89.1036C339.086 85.7999 343.522 78.8801 343.463 71.3206C343.456 69.1348 343.066 66.9657 342.308 64.9073Z" fill="#52B788"/>
<path opacity="0.5" d="M343.463 71.3054C343.455 69.1247 343.064 66.9614 342.308 64.9073C342.061 64.2199 341.767 63.5485 341.427 62.8995C336.539 53.16 324.422 49.101 314.362 53.8329C304.302 58.5655 300.11 70.2968 304.997 80.037C309.885 89.7765 322.002 93.8355 332.062 89.1036C339.086 85.7999 343.522 78.8801 343.463 71.3206V71.3062V71.3054Z" fill="white"/>
<path d="M336.497 65.5251C335.129 63.738 332.904 64.6576 331.848 66.2241C330.534 64.8559 328.171 64.327 327.146 66.3123C325.406 69.6659 329.842 72.2619 331.908 73.2474L332.501 73.5267L333.032 73.1519C334.901 71.8358 338.805 68.5408 336.496 65.5251H336.497Z" fill="#52B788"/>
<path d="M319.451 66.3854C318.342 64.4362 316.011 65.0541 314.749 66.4664C313.633 64.9441 311.369 64.1055 310.07 65.9368C307.883 69.0328 311.909 72.1881 313.83 73.4383L314.369 73.7914L314.955 73.4897C316.983 72.4305 321.32 69.6731 319.451 66.3854Z" fill="#52B788"/>
<path d="M323.519 79.5942C320.95 79.1065 319.876 76.1017 319.668 74.447C319.66 74.2299 319.836 74.049 320.06 74.0418C320.257 74.036 320.429 74.167 320.47 74.3529C320.473 74.4014 321.098 78.9531 324.314 78.8981C327.531 78.8432 327.795 73.9506 327.797 73.8971C327.806 73.6829 327.993 73.5172 328.214 73.5259H328.217C328.436 73.5324 328.607 73.709 328.601 73.9202V73.934C328.613 74.1662 328.293 79.6152 324.33 79.6781C324.057 79.6781 323.784 79.6499 323.518 79.5927L323.519 79.5942Z" fill="#263238"/>
<path d="M336.429 74.0338C336.034 74.4238 335.563 74.6076 335.38 74.4311C335.198 74.2545 335.38 73.7987 335.76 73.4015C336.14 73.0043 336.619 72.835 336.809 73.0043C336.999 73.1736 336.824 73.6439 336.429 74.0338Z" fill="#52B788"/>
<path d="M338.101 74.2249C337.705 74.6221 337.234 74.7987 337.052 74.6221C336.869 74.4456 337.052 73.9898 337.432 73.5998C337.811 73.2098 338.291 73.026 338.472 73.2026C338.655 73.3791 338.504 73.8349 338.101 74.2249Z" fill="#52B788"/>
<path d="M310.959 74.2986C311.392 74.6517 311.879 74.7768 312.038 74.5851C312.197 74.3934 311.985 73.96 311.552 73.6069C311.119 73.2538 310.632 73.1286 310.465 73.3204C310.298 73.5114 310.518 73.9527 310.96 74.2986H310.959Z" fill="#52B788"/>
<path d="M309.311 74.6662C309.744 75.0193 310.231 75.1445 310.397 74.9527C310.564 74.761 310.344 74.3204 309.903 73.9745C309.463 73.6287 308.983 73.4963 308.824 73.688C308.665 73.879 308.877 74.3131 309.311 74.6662Z" fill="#52B788"/>
<path d="M82.4781 171.484C82.215 170.698 81.8959 169.93 81.5237 169.186C76.0234 158.052 62.2412 153.343 50.7406 158.668C46.1146 160.81 42.3571 164.383 40.0605 168.822C39.6233 169.682 39.24 170.567 38.9141 171.472C34.6394 183.105 40.9147 195.889 52.9302 200.028C64.9458 204.167 78.151 198.091 82.4258 186.458C83.3323 183.991 83.7844 181.388 83.7605 178.769C83.7635 176.287 83.33 173.824 82.4781 171.484Z" fill="#52B788"/>
<path opacity="0.3" d="M82.4781 171.484C82.215 170.698 81.8959 169.93 81.5237 169.186C76.0234 158.052 62.2412 153.343 50.7406 158.668C46.1146 160.81 42.3571 164.383 40.0605 168.822C39.6233 169.682 39.24 170.567 38.9141 171.472C34.6394 183.105 40.9147 195.889 52.9302 200.028C64.9458 204.167 78.151 198.091 82.4258 186.458C83.3323 183.991 83.7844 181.388 83.7605 178.769C83.7635 176.287 83.33 173.824 82.4781 171.484Z" fill="white"/>
<path d="M63.1394 173.564C63.1394 173.564 64.6557 170.154 67.3349 169.983C70.7927 169.784 72.1178 173.637 72.1178 173.637L70.7681 173.685C70.7681 173.685 69.5365 170.693 67.4574 170.935C64.8694 171.229 63.8867 173.856 63.8867 173.856L63.1394 173.564Z" fill="#263238"/>
<path d="M57.0569 173.563C57.0569 173.563 55.3522 170.229 52.6506 170.213C49.186 170.203 48.0934 174.114 48.0934 174.114L49.4439 174.151C49.4439 174.151 50.5028 171.094 52.5864 171.226C55.1803 171.381 56.3178 173.953 56.3178 173.953L57.0569 173.563Z" fill="#263238"/>
<path d="M52.3218 177.395C52.3218 177.395 61.9862 178.601 69.0126 176.964C69.0126 176.964 68.6285 186.218 60.3772 185.685C52.126 185.154 52.3218 177.395 52.3218 177.395Z" fill="#263238"/>
<path d="M52.567 177.78C52.567 177.78 61.7733 178.972 68.4701 177.346C68.4701 177.346 68.305 178.421 68.0322 178.627C67.6593 178.791 67.2692 178.915 66.8693 178.996C66.823 179.135 66.7363 179.258 66.6197 179.349C65.971 179.741 63.5243 179.669 63.5243 179.669C63.5243 179.669 63.4937 179.857 63.4107 179.916C62.8637 180.313 61.2659 180.449 60.6979 180.089C60.5529 179.926 60.4393 179.738 60.3631 179.536C60.3631 179.536 60.263 180.033 60.1359 180.122C59.7212 180.433 58.4948 180.289 58.0479 180.022C57.9014 179.891 57.7886 179.729 57.7176 179.548C57.7176 179.548 56.0876 179.744 55.6183 179.522C55.4502 179.381 55.3074 179.214 55.1953 179.028C55.1953 179.028 53.3786 179.145 52.9332 178.804C52.7052 178.634 52.5677 177.78 52.5677 177.78H52.567Z" fill="white"/>
<path d="M60.7548 185.342C62.4355 185.428 65.8381 184.212 66.1124 183.101C66.3874 181.99 65.0557 181.414 63.6417 181.752C62.789 181.969 61.9886 182.343 61.2847 182.856C61.2847 182.856 58.7684 181.603 56.8328 182.145C55.6177 182.497 55.4376 185.068 60.7548 185.342Z" fill="#52B788"/>
<path opacity="0.3" d="M49.1165 177.881C48.9185 179.16 47.0778 179.94 45.0025 179.632C42.9271 179.325 41.4205 178.022 41.6096 176.784C41.7987 175.545 43.6565 174.726 45.7139 175.073C47.7713 175.419 49.3213 176.611 49.1165 177.881Z" fill="white"/>
<path opacity="0.3" d="M79.8122 175.505C80.2203 176.738 78.9274 178.226 76.926 178.841C74.9247 179.456 72.9779 178.934 72.5811 177.743C72.1835 176.552 73.4749 175.02 75.4777 174.448C77.4806 173.876 79.4146 174.281 79.8122 175.506V175.505Z" fill="white"/>
<path d="M202.784 198.941C202.629 198.496 202.441 198.063 202.22 197.644C199.067 191.351 191.24 188.726 184.74 191.779C182.128 193.006 180.013 195.039 178.726 197.559C177.826 199.331 177.364 201.282 177.377 203.257C177.296 210.252 183.087 215.984 190.312 216.062C197.536 216.14 203.457 210.534 203.538 203.539C203.539 203.387 203.538 203.234 203.535 203.081C203.529 201.67 203.275 200.27 202.784 198.941Z" fill="#52B788"/>
<path opacity="0.6" d="M202.784 198.941C202.629 198.496 202.441 198.063 202.22 197.644C199.067 191.351 191.24 188.726 184.74 191.779C182.128 193.006 180.013 195.039 178.726 197.559C177.826 199.331 177.364 201.282 177.377 203.257C177.296 210.252 183.087 215.984 190.312 216.062C197.536 216.14 203.457 210.534 203.538 203.539C203.539 203.387 203.538 203.234 203.535 203.081C203.529 201.67 203.275 200.27 202.784 198.941Z" fill="white"/>
<path d="M190.341 207.894C188.168 207.894 186.191 206.83 185.436 205.248C185.351 205.07 185.43 204.859 185.612 204.774C185.792 204.688 186.01 204.761 186.098 204.934L186.102 204.944C186.755 206.284 188.466 207.181 190.36 207.181C192.254 207.181 193.965 206.284 194.617 204.944C194.703 204.766 194.922 204.69 195.106 204.773H195.108C195.29 204.859 195.369 205.07 195.284 205.248C194.49 206.83 192.513 207.894 190.34 207.894H190.341Z" fill="#263238"/>
<path d="M195.245 200.251C195.887 200.251 196.407 200.754 196.407 201.376C196.407 201.998 195.887 202.502 195.245 202.502C194.603 202.502 194.083 201.998 194.083 201.376C194.083 200.754 194.603 200.251 195.245 200.251Z" fill="#263238"/>
<path d="M186.598 201.377C186.598 201.998 186.078 202.503 185.436 202.503C184.794 202.503 184.274 201.999 184.274 201.377C184.274 200.754 184.794 200.252 185.436 200.252C186.076 200.255 186.596 200.757 186.598 201.377Z" fill="#263238"/>
</svg>
