<svg width="34" height="34" viewBox="0 0 34 34" fill="none" xmlns="http://www.w3.org/2000/svg">
<mask id="mask0_86_830" style="mask-type:alpha" maskUnits="userSpaceOnUse" x="-8" y="-7" width="50" height="50">
<rect x="-7.33019" y="-6.55032" width="48.6604" height="48.6604" fill="#D9D9D9"/>
</mask>
<g mask="url(#mask0_86_830)">
<path d="M3.27525 33.9999C2.37456 33.9999 1.60351 33.6792 0.962106 33.0378C0.320702 32.3964 0 31.6254 0 30.7247V4.83481C0 3.93412 0.320702 3.16309 0.962106 2.52172C1.60351 1.88032 2.37456 1.55962 3.27525 1.55962H19.2614C19.5486 1.55962 19.7894 1.6569 19.9837 1.85148C20.178 2.04602 20.2752 2.2871 20.2752 2.57474C20.2752 2.86234 20.178 3.10298 19.9837 3.29664C19.7894 3.4903 19.5486 3.58713 19.2614 3.58713H3.27525C2.91134 3.58713 2.61242 3.7041 2.37848 3.93804C2.1445 4.17198 2.02752 4.47091 2.02752 4.83481V30.7247C2.02752 31.0886 2.1445 31.3875 2.37848 31.6214C2.61242 31.8554 2.91134 31.9724 3.27525 31.9724H29.1651C29.529 31.9724 29.8279 31.8554 30.0618 31.6214C30.2958 31.3875 30.4127 31.0886 30.4127 30.7247V14.7385C30.4127 14.4512 30.51 14.2105 30.7046 14.0162C30.8992 13.8219 31.1403 13.7247 31.4279 13.7247C31.7155 13.7247 31.9562 13.8219 32.1498 14.0162C32.3435 14.2105 32.4403 14.4512 32.4403 14.7385V30.7247C32.4403 31.6254 32.1196 32.3964 31.4782 33.0378C30.8368 33.6792 30.0657 33.9999 29.1651 33.9999H3.27525ZM27.9174 6.08255H24.8761C24.5889 6.08255 24.3481 5.98526 24.1538 5.79069C23.9595 5.59611 23.8623 5.35502 23.8623 5.06742C23.8623 4.77978 23.9595 4.53915 24.1538 4.34552C24.3481 4.15186 24.5889 4.05503 24.8761 4.05503H27.9174V1.01376C27.9174 0.726527 28.0146 0.485759 28.2092 0.291455C28.4038 0.0971518 28.6449 0 28.9325 0C29.2201 0 29.4607 0.0971518 29.6544 0.291455C29.8481 0.485759 29.9449 0.726527 29.9449 1.01376V4.05503H32.9862C33.2734 4.05503 33.5142 4.15232 33.7085 4.34689C33.9028 4.54143 33.9999 4.78252 33.9999 5.07016C33.9999 5.35776 33.9028 5.59839 33.7085 5.79205C33.5142 5.98572 33.2734 6.08255 32.9862 6.08255H29.9449V9.12382C29.9449 9.41105 29.8476 9.65182 29.653 9.84612C29.4585 10.0404 29.2174 10.1376 28.9298 10.1376C28.6421 10.1376 28.4015 10.0404 28.2078 9.84612C28.0142 9.65182 27.9174 9.41105 27.9174 9.12382V6.08255ZM14.6215 25.9678L11.7284 22.4703C11.5517 22.278 11.3398 22.1818 11.0929 22.1818C10.8459 22.1818 10.6341 22.291 10.4573 22.5093L8.11787 25.5935C7.89951 25.8794 7.86896 26.1692 8.02623 26.463C8.18349 26.7567 8.4194 26.9036 8.73393 26.9036H24.0183C24.3328 26.9036 24.5687 26.7567 24.726 26.463C24.8832 26.1692 24.8657 25.8794 24.6734 25.5935L20.5793 20.0919C20.4026 19.8735 20.1842 19.7644 19.9243 19.7644C19.6643 19.7644 19.445 19.8769 19.2664 20.102L14.6215 25.9678Z" fill="#CED4DA"/>
</g>
</svg>
