<svg width="14" height="15" viewBox="0 0 14 15" fill="none" xmlns="http://www.w3.org/2000/svg">
<mask id="mask0_312_1245" style="mask-type:alpha" maskUnits="userSpaceOnUse" x="-2" y="-2" width="18" height="18">
<rect x="-1.36357" y="-1.36232" width="16.3638" height="16.3638" fill="#D9D9D9"/>
</mask>
<g mask="url(#mask0_312_1245)">
<path d="M0 15.0002V12.2729H13.6365V15.0002H0ZM2.7273 9.54556H3.68186L9.0001 4.24437L8.0285 3.27276L2.7273 8.59101V9.54556ZM1.36365 10.9092V8.01145L9.0001 0.39205C9.1251 0.267048 9.26999 0.170456 9.43476 0.102274C9.59954 0.0340913 9.77284 0 9.95466 0C10.1365 0 10.3126 0.0340913 10.4831 0.102274C10.6535 0.170456 10.8069 0.27273 10.9433 0.409096L11.8808 1.36365C12.0172 1.48865 12.1166 1.63638 12.1791 1.80684C12.2416 1.9773 12.2729 2.15343 12.2729 2.33525C12.2729 2.50571 12.2416 2.67333 12.1791 2.8381C12.1166 3.00287 12.0172 3.15344 11.8808 3.28981L4.26141 10.9092H1.36365Z" fill="#495057"/>
</g>
</svg>
