<svg width="14" height="14" viewBox="0 0 14 14" fill="none" xmlns="http://www.w3.org/2000/svg">
<mask id="mask0_92_320" style="mask-type:alpha" maskUnits="userSpaceOnUse" x="-3" y="-3" width="20" height="20">
<rect x="-2.33333" y="-2.33333" width="18.6667" height="18.6667" fill="#D9D9D9"/>
</mask>
<g mask="url(#mask0_92_320)">
<path d="M1.55556 12.4444H2.66389L10.2667 4.84167L9.15833 3.73333L1.55556 11.3361V12.4444ZM0.777778 14C0.557407 14 0.372685 13.9255 0.223611 13.7764C0.074537 13.6273 0 13.4426 0 13.2222V11.3361C0 11.1287 0.0388889 10.931 0.116667 10.7431C0.194444 10.5551 0.30463 10.3898 0.447222 10.2472L10.2667 0.447222C10.4222 0.30463 10.594 0.194444 10.7819 0.116667C10.9699 0.0388889 11.1676 0 11.375 0C11.5824 0 11.7833 0.0388889 11.9778 0.116667C12.1722 0.194444 12.3407 0.311111 12.4833 0.466667L13.5528 1.55556C13.7083 1.69815 13.8218 1.86667 13.8931 2.06111C13.9644 2.25556 14 2.45 14 2.64444C14 2.85185 13.9644 3.04954 13.8931 3.2375C13.8218 3.42546 13.7083 3.59722 13.5528 3.75278L3.75278 13.5528C3.61019 13.6954 3.44491 13.8056 3.25694 13.8833C3.06898 13.9611 2.8713 14 2.66389 14H0.777778ZM9.70278 4.29722L9.15833 3.73333L10.2667 4.84167L9.70278 4.29722Z" fill="white"/>
</g>
</svg>
