<svg width="48" height="48" viewBox="0 0 48 48" fill="none" xmlns="http://www.w3.org/2000/svg">
<mask id="mask0_128_10508" style="mask-type:alpha" maskUnits="userSpaceOnUse" x="0" y="0" width="48" height="48">
<rect width="48" height="48" fill="#52B788"/>
</mask>
<g mask="url(#mask0_128_10508)">
<path d="M22.5 43.999C21.4 43.999 20.2917 43.874 19.175 43.624C18.0583 43.374 16.9167 43.0157 15.75 42.549C16.15 38.5157 17.3167 34.749 19.25 31.249C21.1833 27.749 23.6666 24.6657 26.7 21.999C23.0333 23.8657 19.8583 26.3324 17.175 29.399C14.4917 32.4657 12.6167 35.9657 11.55 39.899C11.4167 39.799 11.2917 39.6907 11.175 39.574L10.8 39.199C9.23333 37.6324 8.04166 35.8824 7.225 33.949C6.40833 32.0157 6 29.999 6 27.899C6 25.6324 6.45 23.4657 7.35 21.399C8.25 19.3324 9.5 17.499 11.1 15.899C13.8 13.1991 17.3 11.4407 21.6 10.6241C25.9 9.80739 31.9333 9.73239 39.7 10.3991C40.3 18.3657 40.2 24.4407 39.4 28.624C38.6 32.8074 36.8666 36.2324 34.2 38.899C32.5666 40.5324 30.7416 41.7907 28.725 42.674C26.7083 43.5574 24.6333 43.999 22.5 43.999Z" fill="#52B788"/>
</g>
</svg>
