<svg width="20" height="18" viewBox="0 0 20 18" fill="none" xmlns="http://www.w3.org/2000/svg">
<mask id="mask0_0_852" style="mask-type:alpha" maskUnits="userSpaceOnUse" x="-3" y="-4" width="26" height="26">
<rect x="-2.2464" y="-3.31249" width="24.4615" height="24.4615" fill="#D9D9D9"/>
</mask>
<g mask="url(#mask0_0_852)">
<path d="M2.92422 17.8364C2.40939 17.8364 1.97361 17.6581 1.61688 17.3013C1.26015 16.9446 1.08179 16.5088 1.08179 15.994V7.85195C0.671479 7.51481 0.363417 7.07739 0.157601 6.53969C-0.0481975 6.00198 -0.0524443 5.42148 0.144861 4.79819L1.17586 1.43082C1.31176 1.00223 1.54239 0.656612 1.86776 0.393957C2.19313 0.131319 2.58188 0 3.03399 0H16.9464C17.3985 0 17.7847 0.125442 18.1048 0.376325C18.425 0.627208 18.6582 0.972174 18.8045 1.41122L19.8551 4.79819C20.0524 5.42148 20.0482 6.00002 19.8424 6.53381C19.6366 7.06759 19.3285 7.51351 18.9182 7.87154V15.994C18.9182 16.5088 18.7399 16.9446 18.3831 17.3013C18.0264 17.6581 17.5906 17.8364 17.0758 17.8364H2.92422ZM12.2423 7.13459C12.799 7.13459 13.2174 6.96439 13.4977 6.62398C13.778 6.2836 13.8927 5.91805 13.8417 5.52735L13.2224 1.52879H10.7644V5.55476C10.7644 5.98337 10.9095 6.35382 11.1996 6.66613C11.4896 6.97844 11.8372 7.13459 12.2423 7.13459ZM7.65578 7.13459C8.12489 7.13459 8.50548 6.97844 8.79754 6.66613C9.08958 6.35382 9.2356 5.98337 9.2356 5.55476V1.52879H6.77766L6.15828 5.56654C6.10341 5.9285 6.21709 6.28033 6.49933 6.62202C6.78159 6.96373 7.16707 7.13459 7.65578 7.13459ZM3.12021 7.13459C3.49786 7.13459 3.82258 7.00294 4.09439 6.73964C4.36619 6.47632 4.53409 6.1454 4.59812 5.74686L5.19791 1.52879H3.03399C2.92291 1.52879 2.8347 1.55329 2.76937 1.6023C2.70402 1.65131 2.65501 1.72482 2.62235 1.82284L1.64234 5.13922C1.50773 5.57698 1.5711 6.01898 1.83245 6.46521C2.09379 6.91147 2.52305 7.13459 3.12021 7.13459ZM16.8798 7.13459C17.4312 7.13459 17.8533 6.91801 18.146 6.48483C18.4387 6.05164 18.5093 5.60311 18.3577 5.13922L17.3267 1.80322C17.294 1.70522 17.245 1.63498 17.1797 1.59249C17.1144 1.55003 17.0262 1.52879 16.9151 1.52879H14.8021L15.4019 5.74686C15.4659 6.1454 15.6338 6.47632 15.9056 6.73964C16.1774 7.00294 16.5021 7.13459 16.8798 7.13459ZM2.92422 16.3076H17.0758C17.1673 16.3076 17.2424 16.2782 17.3012 16.2194C17.36 16.1606 17.3894 16.0855 17.3894 15.994V8.57323C17.2784 8.61373 17.1856 8.63888 17.1111 8.64868C17.0366 8.65848 16.9595 8.66338 16.8798 8.66338C16.4211 8.66338 16.0177 8.58041 15.6694 8.41446C15.3212 8.24851 14.9838 7.9826 14.6571 7.61671C14.3709 7.93554 14.0325 8.1897 13.6418 8.37917C13.2511 8.56864 12.8055 8.66338 12.305 8.66338C11.8725 8.66338 11.4648 8.57354 11.082 8.39387C10.6991 8.2142 10.3384 7.95515 10 7.61671C9.68509 7.95515 9.32836 8.2142 8.92981 8.39387C8.53127 8.57354 8.12751 8.66338 7.71851 8.66338C7.25855 8.66338 6.82734 8.58008 6.42488 8.41349C6.0224 8.24688 5.66828 7.98129 5.36251 7.61671C4.93391 8.04531 4.53896 8.32691 4.17766 8.4615C3.81636 8.59609 3.46388 8.66338 3.12021 8.66338C3.04051 8.66338 2.95819 8.65848 2.87326 8.64868C2.7883 8.63888 2.70075 8.61373 2.6106 8.57323V15.994C2.6106 16.0855 2.64 16.1606 2.69879 16.2194C2.7576 16.2782 2.83274 16.3076 2.92422 16.3076Z" fill="#495057"/>
</g>
</svg>
